<svg width="384" height="384" viewBox="0 0 384 384" fill="none" xmlns="http://www.w3.org/2000/svg">
<g clip-path="url(#clip0_29_1136)">
<path d="M384 293.682H0V293.874H384V293.682Z" fill="#EE1D52"/>
<path d="M345.524 306.043H320.086V306.235H345.524V306.043Z" fill="#EE1D52"/>
<path d="M254.377 308.128H247.701V308.32H254.377V308.128Z" fill="#EE1D52"/>
<path d="M319.318 298.912H304.578V299.104H319.318V298.912Z" fill="#EE1D52"/>
<path d="M73.4608 300.203H40.2886V300.395H73.4608V300.203Z" fill="#EE1D52"/>
<path d="M85.1626 300.203H80.2988V300.395H85.1626V300.203Z" fill="#EE1D52"/>
<path d="M172.913 303.445H100.97V303.637H172.913V303.445Z" fill="#EE1D52"/>
<path d="M182.027 259.43H33.727C31.3101 259.43 29.3433 257.464 29.3433 255.047V46.5869C29.3433 44.17 31.3101 42.2031 33.727 42.2031H182.027C184.443 42.2031 186.41 44.17 186.41 46.5869V255.047C186.41 257.464 184.443 259.43 182.027 259.43ZM33.727 42.3959C31.4153 42.3959 29.5353 44.276 29.5353 46.5876V255.047C29.5353 257.359 31.4153 259.239 33.727 259.239H182.027C184.338 259.239 186.218 257.359 186.218 255.047V46.5869C186.218 44.276 184.338 42.3951 182.027 42.3951L33.727 42.3959Z" fill="#EE1D52"/>
<path d="M348.142 259.43H199.842C197.426 259.43 195.459 257.464 195.459 255.047V46.5869C195.459 44.17 197.426 42.2031 199.842 42.2031H348.142C350.559 42.2031 352.525 44.17 352.525 46.5869V255.047C352.526 257.464 350.559 259.43 348.142 259.43ZM199.842 42.3959C197.532 42.3959 195.651 44.276 195.651 46.5876V255.047C195.651 257.359 197.532 259.239 199.842 259.239H348.142C350.453 259.239 352.333 257.359 352.333 255.047V46.5869C352.333 44.276 350.453 42.3951 348.142 42.3951L199.842 42.3959Z" fill="#EE1D52"/>
<path d="M213.295 123.411L212.949 113.319L219.145 111.295C219.4 107.846 219.976 104.441 220.797 101.16L215.546 97.2879L219.113 87.8085L225.609 88.3315C227.157 85.2664 228.977 82.3503 231.016 79.6147L227.651 73.9983L234.569 66.6171L240.377 69.5908C242.993 67.3674 245.75 65.3545 248.702 63.5743L247.761 57.1277L256.976 52.9459L261.197 57.8934C264.414 56.8497 267.746 56.0694 271.194 55.5517L272.763 49.2326L282.883 48.8863L284.881 55.0833C288.356 55.3636 291.734 55.9142 295.015 56.7352L298.915 51.509L308.393 55.0502L307.869 61.5467C310.935 63.1211 313.851 64.9398 316.586 66.9796L322.176 63.6157L329.584 70.5055L326.611 76.3392C328.833 78.9289 330.847 81.7136 332.602 84.6658L339.047 83.6989L343.255 92.9119L338.281 97.1343C339.324 100.351 340.133 103.71 340.623 107.132L346.97 108.727L347.315 118.819L341.093 120.846C340.839 124.319 340.261 127.699 339.441 130.979L344.692 134.852L341.125 144.332L334.629 143.807C333.081 146.872 331.261 149.788 329.222 152.524L332.587 158.14L325.669 165.522L319.862 162.548C317.272 164.771 314.488 166.786 311.537 168.566L312.504 175.01L303.29 179.192L299.041 174.245C295.825 175.289 292.493 176.069 289.044 176.587L287.474 182.906L277.355 183.252L275.356 177.055C271.881 176.775 268.503 176.224 265.223 175.404L261.35 180.629L251.871 177.088L252.369 170.594C249.302 169.019 246.414 167.198 243.652 165.159L238.062 168.525L230.655 161.633L233.627 155.8C231.405 153.21 229.391 150.425 227.636 147.473L221.191 148.441L216.984 139.227L221.958 135.004C220.914 131.788 220.107 128.456 219.616 125.008L213.295 123.411ZM281.491 156.106C303.592 155.349 320.899 136.814 320.142 114.712C319.384 92.5832 300.849 75.2778 278.748 76.0351C256.646 76.7923 239.339 95.3257 240.097 117.454C240.854 139.556 259.389 156.863 281.491 156.106Z" fill="#EE1D52"/>
<path d="M91.986 243.022L91.8301 238.472L94.6241 237.559C94.7393 236.004 94.9988 234.468 95.369 232.989L93.0013 231.242L94.6095 226.969L97.5386 227.204C98.2367 225.822 99.057 224.507 99.9762 223.274L98.4595 220.742L101.579 217.413L104.198 218.754C105.378 217.752 106.62 216.844 107.952 216.041L107.528 213.134L111.683 211.248L113.587 213.479C115.037 213.009 116.54 212.657 118.094 212.423L118.802 209.574L123.365 209.417L124.266 212.211C125.833 212.338 127.356 212.586 128.835 212.956L130.594 210.6L134.868 212.197L134.631 215.126C136.014 215.836 137.329 216.656 138.562 217.576L141.083 216.059L144.423 219.166L143.082 221.796C144.083 222.964 144.992 224.219 145.783 225.551L148.689 225.115L150.587 229.269L148.344 231.173C148.814 232.623 149.179 234.138 149.4 235.681L152.262 236.4L152.418 240.95L149.612 241.864C149.498 243.431 149.237 244.954 148.867 246.433L151.235 248.179L149.627 252.454L146.698 252.217C145.999 253.6 145.179 254.915 144.26 256.148L145.777 258.68L142.658 262.009L140.04 260.668C138.872 261.67 137.617 262.578 136.286 263.381L136.722 266.287L132.567 268.173L130.652 265.942C129.201 266.413 127.699 266.765 126.144 266.998L125.436 269.848L120.874 270.003L119.972 267.209C118.405 267.083 116.882 266.835 115.402 266.465L113.656 268.821L109.382 267.224L109.606 264.296C108.223 263.586 106.921 262.765 105.676 261.845L103.155 263.363L99.815 260.255L101.155 257.625C100.154 256.457 99.2451 255.202 98.4541 253.87L95.548 254.306L93.6502 250.151L95.8936 248.248C95.4228 246.798 95.0588 245.295 94.8376 243.74L91.986 243.022ZM122.736 257.764C132.702 257.422 140.505 249.065 140.164 239.099C139.822 229.121 131.465 221.318 121.499 221.659C111.533 222.001 103.729 230.358 104.071 240.336C104.413 250.302 112.77 258.106 122.736 257.764Z" fill="black" fill-opacity="0.1"/>
<path d="M90.388 73.7595L87.8428 71.3825L88.8604 69.378C88.0817 68.4749 87.392 67.5041 86.7922 66.5042L84.5673 66.8406L83.1258 63.6595L84.8377 62.2034C84.4675 61.0783 84.2002 59.924 84.0305 58.7597L81.8409 58.2106L81.728 54.7238L83.8692 54.0326C83.9652 52.853 84.1465 51.6895 84.4322 50.5359L82.6312 49.1935L83.8585 45.9272L86.0941 46.1038C86.624 45.0647 87.2461 44.0617 87.9603 43.0955L86.8022 41.1717L89.1853 38.6196L91.1836 39.6434C92.0999 38.8646 93.0576 38.175 94.0575 37.5752L93.7342 35.3495L96.9091 33.9018L98.3652 35.6137C99.4965 35.2497 100.651 34.9824 101.816 34.8127L102.359 32.6292L105.846 32.5033L106.543 34.6506C107.716 34.7405 108.886 34.9279 110.034 35.2205L111.37 33.4134L114.642 34.6337L114.459 36.8763C115.499 37.4062 116.515 38.0283 117.468 38.7433L119.405 37.5844L121.95 39.9613L120.927 41.9727C121.712 42.882 122.395 43.8467 122.995 44.8466L125.22 44.5102L126.661 47.692L124.95 49.1482C125.32 50.2733 125.587 51.4276 125.757 52.5919L127.947 53.141L128.06 56.6285L125.919 57.3189C125.829 58.4924 125.642 59.6628 125.357 60.8164L127.164 62.1519L125.936 65.4182L123.694 65.2477C123.164 66.2868 122.542 67.2898 121.828 68.2568L122.986 70.1806L120.603 72.7327L118.604 71.7089C117.689 72.4877 116.73 73.1773 115.73 73.7771L116.06 75.9959L112.885 77.4436L111.423 75.7386C110.291 76.1026 109.143 76.363 107.972 76.5389L107.43 78.7223L103.943 78.8483L103.246 76.7009C102.072 76.6111 100.903 76.4237 99.7545 76.1311L98.419 77.9389L95.1465 76.7186L95.3301 74.476C94.2917 73.9461 93.2818 73.3309 92.3211 72.6098L90.388 73.7595ZM108.525 59.0669C110.397 57.0616 110.29 53.9167 108.285 52.0443C106.277 50.1696 103.132 50.2771 101.26 52.2824C99.3874 54.2876 99.4949 57.4318 101.502 59.3073C103.508 61.1796 106.653 61.0721 108.525 59.0669Z" fill="#EE1D52"/>
<path d="M160.804 238.866L166.611 234.854C166.613 234.85 166.613 234.844 166.614 234.841C167.189 232.731 167.981 230.7 168.95 228.791L167.462 222.951L175.886 213.929L181.816 215.015C183.652 213.919 185.623 212.99 187.688 212.273C187.692 212.271 187.698 212.271 187.702 212.268L191.308 206.197L203.644 205.775L207.655 211.582C207.662 211.585 207.67 211.586 207.678 211.588C209.786 212.162 211.814 212.953 213.721 213.92L219.558 212.433L228.58 220.858L227.496 226.776C227.498 226.778 227.498 226.779 227.499 226.781C228.618 228.638 229.525 230.61 230.242 232.675L236.313 236.279L236.735 248.615L230.922 252.63C230.348 254.754 229.58 256.78 228.593 258.705C228.593 258.705 228.592 258.706 228.592 258.708L230.076 264.529L221.652 273.55L215.759 272.472C213.899 273.572 211.926 274.502 209.836 275.22C209.834 275.22 209.833 275.221 209.831 275.221L206.231 281.284L193.895 281.706L189.887 275.902C187.754 275.329 185.722 274.537 183.793 273.567L183.791 273.566L177.981 275.047L168.959 266.623L170.043 260.705C168.924 258.847 168.017 256.874 167.299 254.81L167.299 254.809L161.227 251.204L160.804 238.866ZM199.247 257.618C206.916 257.355 212.906 250.917 212.644 243.271C212.381 235.602 205.965 229.611 198.297 229.874C190.628 230.137 184.637 236.552 184.9 244.221C185.162 251.868 191.579 257.881 199.247 257.618Z" fill="#EE1D52"/>
<path d="M56.9087 92.8911C56.623 92.8911 56.355 92.7506 56.1914 92.5148L54.0487 89.4121C53.0034 89.1118 51.9674 88.7147 50.959 88.2278L47.9039 89.0058C47.6151 89.078 47.311 89.0004 47.0944 88.7977L41.8682 83.9178C41.6509 83.7151 41.5526 83.4163 41.6055 83.1245L42.1746 80.0148C41.6363 79.0817 41.1701 78.0787 40.7853 77.0258L37.5375 75.0966C37.2817 74.9453 37.1212 74.6742 37.1112 74.377L36.8662 67.2299C36.8562 66.9327 36.9975 66.6516 37.2418 66.4827L40.3476 64.3377C40.6432 63.3101 41.0434 62.2694 41.5318 61.2649L40.7492 58.1952C40.6763 57.9072 40.7546 57.6023 40.9566 57.385L45.8365 52.1579C46.0392 51.9406 46.338 51.8438 46.6306 51.8953L49.7479 52.4659C50.7048 51.9168 51.7055 51.4498 52.73 51.0743L54.6585 47.8272C54.8098 47.5722 55.0809 47.4117 55.3781 47.4017L62.5243 47.1567C62.82 47.1514 63.1026 47.2881 63.2708 47.5323L65.4166 50.6388C66.4765 50.9468 67.5033 51.3431 68.4902 51.8231L71.5583 51.0405C71.8456 50.9683 72.1512 51.0451 72.3686 51.2486L77.5948 56.1293C77.8121 56.332 77.9104 56.6308 77.8575 56.9226L77.2876 60.033C77.8352 60.9823 78.2975 61.9791 78.6792 63.0228L81.9255 64.9497C82.1805 65.101 82.3418 65.3722 82.3518 65.6694L82.5968 72.8164C82.6068 73.1136 82.4655 73.3947 82.2212 73.5636L79.1131 75.7102C78.8029 76.79 78.4073 77.8237 77.9335 78.7922L78.7122 81.8511C78.7852 82.1384 78.7069 82.4433 78.5049 82.6606L73.625 87.8868C73.4222 88.1042 73.1235 88.2025 72.8309 88.1495L69.7336 87.5827C68.759 88.138 67.7506 88.6057 66.7276 88.9766L64.8038 92.2168C64.6525 92.4726 64.3814 92.6331 64.0841 92.6431L56.9379 92.8881C56.9287 92.8911 56.9187 92.8911 56.9087 92.8911ZM51.0558 86.433C51.191 86.433 51.3246 86.4645 51.4475 86.5259C52.5419 87.0758 53.6739 87.5105 54.8136 87.8162C55.0133 87.8699 55.1869 87.9921 55.3044 88.1625L57.3557 91.1332L63.5496 90.9212L65.3913 87.8193C65.5019 87.6326 65.677 87.4967 65.8774 87.433C66.9864 87.0513 68.0808 86.5421 69.1307 85.9215C69.3111 85.8148 69.5247 85.7771 69.7312 85.814L72.6765 86.3531L76.9067 81.8235L76.1648 78.912C76.1126 78.7062 76.1371 78.4881 76.2339 78.2991C76.7654 77.2623 77.197 76.1357 77.518 74.9483C77.5718 74.7494 77.6946 74.5759 77.8644 74.4584L80.8404 72.4032L80.6284 66.2085L77.5218 64.3645C77.3452 64.2593 77.2108 64.095 77.144 63.9007C76.7439 62.7494 76.2393 61.6619 75.6433 60.6697C75.5235 60.4838 75.479 60.2588 75.5189 60.0415L76.0611 57.0816L71.5314 52.8514L68.6115 53.5956C68.4064 53.6471 68.1899 53.6241 68.0017 53.5281C66.9319 52.9851 65.8098 52.5519 64.6663 52.2401C64.4681 52.1864 64.2815 52.0604 64.1648 51.8914L62.1119 48.9185L55.918 49.1305L54.0725 52.2378C53.9911 52.3745 53.8736 52.4866 53.733 52.5611C53.6777 52.5911 53.6117 52.6172 53.551 52.6341C52.4812 53.0073 51.3914 53.5165 50.36 54.1325C50.1787 54.2415 49.9645 54.2799 49.7563 54.2415L46.7895 53.6985L42.5594 58.2282L43.3036 61.1497C43.3558 61.3547 43.332 61.5713 43.236 61.7595C42.6915 62.8316 42.2583 63.9552 41.9465 65.0987C41.8928 65.2969 41.7684 65.4781 41.5994 65.5949L38.6272 67.6477L38.8392 73.8424L41.9473 75.6879C42.1239 75.7931 42.2576 75.9567 42.3252 76.151C42.7284 77.3115 43.2375 78.4059 43.8381 79.4027C43.9479 79.5848 43.9871 79.8006 43.9487 80.0095L43.4073 82.9701L47.9369 87.1995L50.8415 86.4591C50.9106 86.4415 50.9836 86.433 51.0558 86.433ZM59.7234 83.0937C56.4026 83.0937 53.2546 81.8534 50.8154 79.5732C48.2664 77.1901 46.7972 73.9599 46.6774 70.477C46.5576 66.9865 47.8025 63.6595 50.1826 61.1113C52.5626 58.5623 55.7959 57.0923 59.2864 56.9733C62.7793 56.852 66.1032 58.0984 68.6522 60.4785C71.2012 62.8585 72.6711 66.0918 72.7902 69.5823C72.91 73.066 71.6643 76.3891 69.285 78.9412C66.9027 81.4955 63.6694 82.9678 60.1812 83.0868C60.0283 83.0907 59.8755 83.0937 59.7234 83.0937ZM59.7457 58.7074C59.6128 58.7074 59.48 58.7097 59.3471 58.7144C56.322 58.818 53.5195 60.0914 51.4575 62.3002C49.3946 64.5089 48.3163 67.3912 48.42 70.4164C48.5237 73.4346 49.797 76.2347 52.0058 78.2991C54.2169 80.3658 57.0976 81.451 60.122 81.3435C63.1449 81.2398 65.9465 79.9641 68.0109 77.7508C70.0738 75.5397 71.1528 72.6597 71.0491 69.6407C70.9455 66.6155 69.6721 63.8131 67.4633 61.751C65.3521 59.7803 62.6249 58.7074 59.7457 58.7074Z" fill="#EE1D52"/>
<path d="M192 328.367C274.239 328.367 340.907 324.473 340.907 319.671C340.907 314.868 274.239 310.975 192 310.975C109.761 310.975 43.0933 314.868 43.0933 319.671C43.0933 324.473 109.761 328.367 192 328.367Z" fill="black" fill-opacity="0.1"/>
<path d="M319.805 249.499H64.1949C57.9134 249.499 52.8208 244.407 52.8208 238.125V74.7026C52.8208 68.4211 57.9126 63.3285 64.1949 63.3285H319.804C326.086 63.3285 331.179 68.4211 331.179 74.7026V238.125C331.179 244.407 326.087 249.499 319.805 249.499Z" fill="white"/>
<path d="M334.282 190.194H333.514V183.253H334.282V190.194ZM334.282 177.83H333.514V163.498H334.282V177.83Z" fill="#FCBD01"/>
<path d="M319.805 249.914H64.195C57.6947 249.914 52.4062 244.626 52.4062 238.125V74.7026C52.4062 68.2022 57.6947 62.9138 64.195 62.9138H319.805C326.305 62.9138 331.593 68.2022 331.593 74.7026V238.125C331.594 244.626 326.305 249.914 319.805 249.914ZM64.195 63.7432C58.1524 63.7432 53.2365 68.6592 53.2365 74.7018V238.125C53.2365 244.167 58.1524 249.083 64.195 249.083H319.805C325.847 249.083 330.763 244.167 330.763 238.125V74.7026C330.763 68.66 325.847 63.744 319.805 63.744L64.195 63.7432Z" fill="#FCBD01"/>
<path opacity="0.5" d="M145.769 211.006H141.896V210.175H145.769L145.838 211.006H145.769ZM138.023 211.006H134.15V210.175H138.023V211.006ZM130.277 211.006H126.404V210.175H130.277V211.006ZM122.532 211.006H118.659V210.175H122.532V211.006ZM114.786 211.006H110.913V210.175H114.786V211.006ZM107.04 211.006H103.167V210.175H107.04V211.006ZM99.2944 211.006H95.4213V210.175H99.2944V211.006ZM91.5491 211.006H87.6761V210.175H91.5491V211.006ZM83.803 211.006H79.93V210.175H83.803V211.006ZM76.0577 211.006H74.6139C73.7253 211.006 72.8744 210.805 72.0857 210.41L72.4574 209.668C73.1301 210.005 73.8551 210.175 74.6139 210.175H76.0577V211.006ZM149.625 209.485L149.058 208.878C149.941 208.054 150.479 206.941 150.575 205.742L151.403 205.808C151.291 207.213 150.66 208.52 149.625 209.485ZM69.3385 207.387C69.0881 206.739 68.9614 206.054 68.9614 205.353V203.409H69.7916V205.353C69.7916 205.951 69.8999 206.535 70.1127 207.088L69.3385 207.387ZM151.421 201.903H150.591V198.03H151.421V201.903ZM69.7916 199.536H68.9614V195.663H69.7916V199.536ZM151.421 194.157H150.591V190.284H151.421V194.157ZM69.7916 191.79H68.9614V187.918H69.7916V191.79ZM151.421 186.412H150.591V182.539H151.421V186.412ZM69.7916 184.044H68.9614V180.171H69.7916V184.044ZM151.421 178.666H150.591V174.793H151.421V178.666ZM69.7916 176.299H68.9614V172.426H69.7916V176.299ZM151.421 170.92H150.591V167.047H151.421V170.92ZM69.7916 168.553H68.9614V164.681H69.7916V168.553ZM151.421 163.175H150.591V159.302H151.421V163.175ZM69.7916 160.807H68.9614V156.935H69.7916V160.807ZM151.421 155.429H150.591V151.556H151.421V155.429ZM69.7916 153.062H68.9614V149.189H69.7916V153.062ZM151.421 147.683H150.591V143.81H151.421V147.683ZM69.7916 145.316H68.9614V141.443H69.7916V145.316ZM151.421 139.937H150.591V136.064H151.421V139.937ZM69.7916 137.57H68.9614V133.697H69.7916V137.57ZM151.421 132.191H150.591V128.318H151.421V132.191ZM69.7916 129.824H68.9614V125.951H69.7916V129.824ZM151.421 124.446H150.591V120.573H151.421V124.446ZM69.7916 122.078H68.9614V118.206H69.7916V122.078ZM151.421 116.701H150.591V114.786C150.591 114.178 150.478 113.586 150.259 113.025L151.031 112.722C151.289 113.379 151.421 114.073 151.421 114.786V116.701ZM69.8093 114.369L68.9822 114.298C69.1027 112.894 69.7409 111.591 70.7816 110.632L71.3445 111.242C70.4567 112.061 69.9114 113.171 69.8093 114.369ZM147.9 110.459C147.234 110.13 146.517 109.964 145.769 109.964H144.295V109.134H145.769C146.646 109.134 147.487 109.329 148.268 109.714L147.9 110.459ZM140.421 109.965H136.548V109.134H140.421V109.965ZM132.675 109.965H128.802V109.134H132.675V109.965ZM124.929 109.965H121.056V109.134H124.929V109.965ZM117.184 109.965H113.311V109.134H117.184V109.965ZM109.438 109.965H105.565V109.134H109.438V109.965ZM101.693 109.965H97.8198V109.134H101.693V109.965ZM93.9468 109.965H90.0737V109.134H93.9468V109.965ZM86.2015 109.965H82.3285V109.134H86.2015V109.965ZM78.4554 109.965H74.6131L74.5824 109.134H78.4554V109.965Z" fill="#FCBD01"/>
<path d="M74.8187 75.3078C74.8187 77.3322 73.1775 78.9742 71.1523 78.9742C69.1271 78.9742 67.4858 77.333 67.4858 75.3078C67.4858 73.2826 69.1271 71.6413 71.1523 71.6413C73.1775 71.6413 74.8187 73.2833 74.8187 75.3078Z" fill="#FCBD01"/>
<path opacity="0.2" d="M98.892 77.452H80.907C79.7273 77.452 78.7627 76.4867 78.7627 75.3078C78.7627 74.1281 79.7281 73.1635 80.907 73.1635H98.892C100.072 73.1635 101.036 74.1289 101.036 75.3078C101.036 76.4874 100.072 77.452 98.892 77.452Z" fill="#FCBD01"/>
<path opacity="0.2" d="M185.597 76.4836H172.978C172.328 76.4836 171.802 75.9567 171.802 75.3078C171.802 74.658 172.329 74.132 172.978 74.132H185.597C186.246 74.132 186.772 74.6588 186.772 75.3078C186.772 75.9575 186.246 76.4836 185.597 76.4836Z" fill="#FCBD01"/>
<path opacity="0.2" d="M213.914 76.4836H201.294C200.644 76.4836 200.118 75.9567 200.118 75.3078C200.118 74.658 200.645 74.132 201.294 74.132H213.914C214.563 74.132 215.09 74.6588 215.09 75.3078C215.09 75.9575 214.563 76.4836 213.914 76.4836Z" fill="#FCBD01"/>
<path opacity="0.2" d="M242.231 76.4836H229.611C228.961 76.4836 228.435 75.9567 228.435 75.3078C228.435 74.658 228.962 74.132 229.611 74.132H242.231C242.88 74.132 243.406 74.6588 243.406 75.3078C243.406 75.9575 242.88 76.4836 242.231 76.4836Z" fill="#FCBD01"/>
<path opacity="0.2" d="M270.548 76.4836H257.929C257.279 76.4836 256.753 75.9567 256.753 75.3078C256.753 74.658 257.28 74.132 257.929 74.132H270.548C271.197 74.132 271.724 74.6588 271.724 75.3078C271.724 75.9575 271.197 76.4836 270.548 76.4836Z" fill="#FCBD01"/>
<path opacity="0.7" d="M306.783 77.3837H287.692C286.545 77.3837 285.616 76.4544 285.616 75.3078C285.616 74.1611 286.545 73.2319 287.692 73.2319H306.783C307.929 73.2319 308.858 74.1611 308.858 75.3078C308.858 76.4544 307.929 77.3837 306.783 77.3837Z" fill="#FCBD01"/>
<path opacity="0.7" d="M211.989 217.738H176.222C173.78 217.738 171.801 215.759 171.801 213.317V212.349C171.801 209.907 173.78 207.928 176.222 207.928H211.989C214.431 207.928 216.41 209.907 216.41 212.349V213.317C216.411 215.759 214.431 217.738 211.989 217.738Z" fill="#FCBD01"/>
<path opacity="0.2" d="M306.507 164.116V126.774C306.507 126.124 307.034 125.598 307.683 125.598C308.332 125.598 308.858 126.125 308.858 126.774V164.116C308.858 164.766 308.332 165.292 307.683 165.292C307.034 165.292 306.507 164.765 306.507 164.116Z" fill="#FCBD01"/>
<path opacity="0.2" d="M307.683 175.945C308.332 175.945 308.858 175.419 308.858 174.769C308.858 174.12 308.332 173.593 307.683 173.593C307.033 173.593 306.507 174.12 306.507 174.769C306.507 175.419 307.033 175.945 307.683 175.945Z" fill="#FCBD01"/>
<path opacity="0.2" d="M307.683 192.547C308.332 192.547 308.858 192.02 308.858 191.371C308.858 190.722 308.332 190.195 307.683 190.195C307.033 190.195 306.507 190.722 306.507 191.371C306.507 192.02 307.033 192.547 307.683 192.547Z" fill="#FCBD01"/>
<path opacity="0.2" d="M307.683 209.149C308.332 209.149 308.858 208.622 308.858 207.973C308.858 207.323 308.332 206.797 307.683 206.797C307.033 206.797 306.507 207.323 306.507 207.973C306.507 208.622 307.033 209.149 307.683 209.149Z" fill="#FCBD01"/>
<path opacity="0.2" d="M272.209 128.407H181.23C176.044 128.407 171.801 124.163 171.801 118.978C171.801 113.792 176.044 109.549 181.23 109.549H272.209C277.394 109.549 281.638 113.792 281.638 118.978C281.638 124.163 277.394 128.407 272.209 128.407Z" fill="#FCBD01"/>
<path opacity="0.2" d="M238.816 155.78H181.231C176.045 155.78 171.802 151.536 171.802 146.351C171.802 141.165 176.045 136.922 181.231 136.922H238.816C244.001 136.922 248.245 141.165 248.245 146.351C248.244 151.537 244.001 155.78 238.816 155.78Z" fill="#FCBD01"/>
<path d="M255.772 177.83H174.007C172.794 177.83 171.802 176.838 171.802 175.625C171.802 174.413 172.794 173.421 174.007 173.421H255.773C256.985 173.421 257.977 174.413 257.977 175.625C257.977 176.838 256.984 177.83 255.772 177.83Z" fill="#EE1D52"/>
<path d="M274.984 177.83H266.62C265.407 177.83 264.415 176.838 264.415 175.625C264.415 174.413 265.407 173.421 266.62 173.421H274.984C276.197 173.421 277.189 174.413 277.189 175.625C277.189 176.838 276.197 177.83 274.984 177.83Z" fill="#EE1D52"/>
<path d="M210.023 182.545H245.178C246.39 182.545 247.383 183.537 247.383 184.75C247.383 185.963 246.39 186.955 245.178 186.955H210.023C208.811 186.955 207.818 185.963 207.818 184.75C207.818 183.537 208.811 182.545 210.023 182.545Z" fill="#EE1D52"/>
<path d="M174.007 182.545H199.175C200.387 182.545 201.38 183.537 201.38 184.75C201.38 185.963 200.387 186.955 199.175 186.955H174.007C172.794 186.955 171.802 185.963 171.802 184.75C171.801 183.537 172.793 182.545 174.007 182.545Z" fill="#EE1D52"/>
<path d="M223.532 196.08H174.006C172.794 196.08 171.801 195.087 171.801 193.875C171.801 192.662 172.794 191.67 174.006 191.67H223.532C224.745 191.67 225.737 192.662 225.737 193.875C225.737 195.087 224.745 196.08 223.532 196.08Z" fill="#EE1D52"/>
<path d="M259.548 196.08H234.38C233.168 196.08 232.175 195.087 232.175 193.875C232.175 192.662 233.168 191.67 234.38 191.67H259.548C260.761 191.67 261.753 192.662 261.753 193.875C261.754 195.087 260.762 196.08 259.548 196.08Z" fill="#EE1D52"/>
<path d="M168.85 196.702L98.7708 210.045C95.9791 210.576 93.2849 208.744 92.7535 205.952L75.7807 116.804C75.2492 114.012 77.0817 111.318 79.8734 110.786L149.953 97.4438C152.744 96.9124 155.438 98.7448 155.97 101.536L172.943 190.685C173.474 193.477 171.642 196.171 168.85 196.702Z" fill="#FCBD01"/>
<g opacity="0.2">
<path d="M96.0885 206.958C96.027 206.958 95.9656 206.943 95.908 206.912C95.7206 206.812 95.6507 206.579 95.7506 206.392L152.296 100.734C152.396 100.547 152.629 100.477 152.816 100.576C153.003 100.676 153.073 100.91 152.973 101.096L96.4279 206.755C96.358 206.884 96.2252 206.958 96.0885 206.958Z" fill="white"/>
<path d="M170.069 192.872C169.981 192.872 169.893 192.842 169.821 192.781L78.4064 115.294C78.2444 115.156 78.2244 114.914 78.3619 114.752C78.4986 114.59 78.7412 114.57 78.9033 114.708L170.318 192.196C170.48 192.333 170.5 192.575 170.362 192.737C170.286 192.826 170.178 192.872 170.069 192.872Z" fill="white"/>
</g>
<path d="M161.1 202.803C161.1 202.803 171.121 237.62 175.187 254.716C179.456 272.671 192.156 299.813 193.212 311.715C194.311 312.152 197.868 311.661 199.767 310.743C199.767 310.743 198.026 272.796 187.707 255.511C190.037 212.978 178.493 202.803 178.493 202.803H161.1Z" fill="#FCBD01"/>
<path opacity="0.1" d="M174.082 220.292L168.447 228.948C170.233 235.476 172.06 242.281 173.554 248.135C175.121 238.001 174.082 220.292 174.082 220.292Z" fill="black"/>
<path d="M181.778 172.805C181.942 173.283 182.051 173.624 182.171 174.017C182.288 174.399 182.387 174.778 182.49 175.157C182.696 175.913 182.859 176.674 183.023 177.433C183.33 178.956 183.57 180.494 183.715 182.05C183.88 183.602 183.94 185.176 183.913 186.76C183.916 188.34 183.744 189.945 183.529 191.54L183.494 191.8C183.47 191.977 183.423 192.158 183.364 192.319C182.99 193.328 182.44 194.181 181.837 194.845C181.235 195.515 180.601 196.03 179.975 196.461C178.723 197.303 177.475 197.803 176.27 198.201C175.055 198.582 173.865 198.833 172.678 198.996C171.476 199.153 170.348 199.238 169.081 199.204C167.925 199.174 167.013 198.212 167.043 197.057C167.064 196.232 167.56 195.532 168.261 195.209L168.437 195.129C169.314 194.726 170.305 194.304 171.195 193.862C172.098 193.418 172.97 192.96 173.747 192.464C174.532 191.988 175.212 191.443 175.687 190.959C176.161 190.469 176.289 190.028 176.213 189.995L176.048 190.774C176.071 189.506 176.067 188.235 175.968 186.941C175.87 185.652 175.73 184.355 175.527 183.057C175.319 181.76 175.092 180.459 174.803 179.17C174.664 178.525 174.507 177.884 174.353 177.248L174.111 176.307L173.881 175.454L173.822 175.233C173.225 173.013 174.541 170.73 176.76 170.133C178.885 169.564 181.072 170.758 181.778 172.805Z" fill="#FF8B7B"/>
<path d="M171.707 195.259L166.691 193.829C165.973 193.624 165.205 193.683 164.526 193.994L162.652 194.852C161.732 195.272 161.338 196.367 161.778 197.278L162.655 199.092C163.019 199.843 163.848 200.248 164.663 200.07L168.027 199.34C168.027 199.34 171.805 199.587 173.139 197.344L171.707 195.259Z" fill="#FF8B7B"/>
<path d="M176.25 165.762C173.56 168.556 172.124 172.754 174.302 180.78C177.174 182.203 184.134 180.356 184.134 180.356C184.134 180.356 184.232 168.296 176.25 165.762Z" fill="#FCBD01"/>
<path opacity="0.7" d="M176.25 165.762C173.56 168.556 172.124 172.754 174.302 180.78C177.174 182.203 184.134 180.356 184.134 180.356C184.134 180.356 184.232 168.296 176.25 165.762Z" fill="white"/>
<path d="M181.122 171.362C180.982 171.366 180.873 171.484 180.878 171.623C180.883 171.759 180.995 171.866 181.13 171.866C181.133 171.866 181.136 171.866 181.139 171.865L182.395 171.82C182.323 171.653 182.247 171.488 182.169 171.324L181.122 171.362Z" fill="#263238"/>
<path d="M180.831 176.327C180.725 176.238 180.565 176.251 180.476 176.358C180.386 176.465 180.4 176.624 180.507 176.714L184.119 179.753C184.111 179.561 184.097 179.328 184.078 179.059L180.831 176.327Z" fill="#263238"/>
<path d="M173.534 177.219L177.596 174.665C177.715 174.591 177.75 174.436 177.676 174.318C177.602 174.199 177.446 174.165 177.328 174.238L173.448 176.677C173.471 176.853 173.505 177.039 173.534 177.219Z" fill="#FCBD01"/>
<path d="M169.364 153.744C168.861 157.273 168.497 163.668 170.996 165.674C170.996 165.674 167.702 165.586 161.359 170.678C159.019 168.071 160.385 166.98 160.385 166.98C164.148 165.594 163.913 162.755 163.121 160.159L169.364 153.744Z" fill="#FF8B7B"/>
<path d="M159.404 149.44C159.288 149.901 158.954 150.23 158.657 150.177C158.36 150.124 158.213 149.707 158.329 149.247C158.445 148.786 158.779 148.457 159.077 148.51C159.374 148.563 159.52 148.98 159.404 149.44Z" fill="#263238"/>
<path d="M159.201 148.559L158.19 148.044C158.19 148.044 158.532 149.009 159.201 148.559Z" fill="#263238"/>
<path d="M159.209 150.311C159.209 150.311 157.939 152.155 156.85 152.96C157.307 153.635 158.392 153.559 158.392 153.559L159.209 150.311Z" fill="#FF5652"/>
<path d="M159.012 145.636C158.983 145.574 158.977 145.503 159.002 145.436C159.052 145.299 159.213 145.233 159.36 145.289C160.835 145.845 161.167 147.056 161.18 147.108C161.218 147.253 161.127 147.394 160.975 147.422C160.825 147.451 160.672 147.356 160.633 147.211C160.621 147.163 160.349 146.227 159.176 145.785C159.101 145.756 159.043 145.701 159.012 145.636Z" fill="#263238"/>
<path d="M174.823 150.452C173.21 155.869 172.642 158.19 169.213 160.511C164.056 164.003 157.76 161.215 157.724 155.518C157.692 150.39 160.336 142.393 166.22 141.162C172.016 139.949 176.437 145.035 174.823 150.452Z" fill="#FF8B7B"/>
<path d="M162.285 150.79C159.076 148.51 160.639 144.319 163.584 144.192C159.744 141.504 161.746 136.64 166.441 136.832C171.136 137.024 171.801 139.904 171.801 139.904C171.801 139.904 179.371 140.288 180.433 145.793C181.685 152.268 177.728 156.416 172.864 158.336C176.171 161.05 168.367 162.953 164.486 160.769C160.507 158.528 159.131 153.676 162.285 150.79Z" fill="#263238"/>
<path d="M180.097 143.515C175.969 142.751 173.899 148.459 176.586 151.794C177.054 152.375 177.52 152.798 177.968 153.1C179.652 154.233 181.94 153.072 182.105 151.05C182.328 148.308 182.325 143.926 180.097 143.515Z" fill="white"/>
<path d="M191.304 146.434C191.608 146.205 191.81 145.918 191.849 145.556C192.025 143.943 190.803 142.897 189.332 142.667C188.45 139.858 184.724 139.807 182.628 141.818C180.913 140.943 179.003 142.869 179.236 144.882C177.427 145.693 176.96 148.692 178.604 150.427C178.95 150.792 179.285 151.051 179.602 151.23C179.683 151.275 179.767 151.296 179.85 151.327C179.995 152.485 180.933 153.668 182.278 153.933C182.676 154.011 183.017 154.025 183.31 153.993C183.858 153.935 184.269 153.584 184.462 153.136C185.664 154.123 186.945 154.765 187.859 154.128C188.818 153.459 189.202 152.502 189.168 151.512C189.801 151.761 190.398 151.789 190.888 151.447C192.651 150.221 192.502 148.024 191.304 146.434Z" fill="#263238"/>
<path d="M164.048 151.602C163.378 152.685 162.384 153.299 161.508 153.448C160.189 153.672 159.766 152.145 160.328 150.711C160.835 149.419 162.132 147.746 163.361 148.181C164.57 148.61 164.814 150.364 164.048 151.602Z" fill="#FF8B7B"/>
<path d="M162.285 147.584C163.413 145.429 169.599 139.536 173.716 139.754C174.782 140.042 175.652 140.458 176.146 140.724C176.282 140.797 176.242 140.997 176.089 141.016C174.474 141.204 169.233 142.414 164.319 150.144C163.199 149.408 162.285 147.584 162.285 147.584Z" fill="#FCBD01"/>
<path d="M164.753 151.97C163.761 154.177 161.769 155.432 160.304 154.773C158.839 154.115 158.456 151.792 159.448 149.585C160.44 147.378 162.432 146.123 163.897 146.781C165.362 147.439 165.745 149.762 164.753 151.97Z" fill="white"/>
<path d="M163.539 151.423C162.643 153.416 160.926 154.587 159.704 154.038C158.482 153.489 158.218 151.427 159.114 149.434C160.01 147.441 161.727 146.271 162.949 146.82C164.17 147.369 164.434 149.431 163.539 151.423Z" fill="#FCBD01"/>
<path d="M189.899 319.647C194.214 319.007 194.297 318.29 196.611 317.479C198.592 316.78 199.149 316.881 200.747 316.341C202.083 315.891 201.63 314.619 200.751 313.269C200.311 312.59 200.247 311.944 199.767 310.743L193.212 311.715C192.574 313.545 192.349 315.886 188.608 317.225C186.38 318.023 188.18 319.903 189.899 319.647Z" fill="#263238"/>
<path d="M149.935 319.664C154.222 319.656 155.047 319.382 157.456 319.3C159.521 319.225 159.861 319.664 161.954 319.664C163.341 319.664 163.532 318.102 163.025 316.931C162.629 316.018 162.569 314.927 162.281 313.743H156.369C155.303 315.617 152.396 317.004 149.145 317.235C146.824 317.407 148.218 319.664 149.935 319.664Z" fill="#263238"/>
<path d="M154.947 202.803C154.947 202.803 154.092 233.65 155.919 253.239C155.805 271.629 156.371 313.743 156.371 313.743C156.514 314.682 161.446 314.307 162.283 313.743C162.283 313.743 171.519 283.068 167.419 253.239C177.684 222.129 175.47 202.803 175.47 202.803H154.947Z" fill="#FCBD01"/>
<path d="M192.352 309.331C192.422 309.929 192.521 310.974 192.485 311.788C192.471 312.081 192.703 312.318 192.997 312.321C195.453 312.349 198.842 311.278 199.914 310.916C200.119 310.847 200.255 310.656 200.257 310.439L200.277 308.119C200.281 307.802 199.996 307.559 199.683 307.612L192.774 308.773C192.508 308.818 192.322 309.061 192.352 309.331Z" fill="#FCBD01"/>
<path opacity="0.5" d="M192.352 309.331C192.422 309.929 192.521 310.974 192.485 311.788C192.471 312.081 192.703 312.318 192.997 312.321C195.453 312.349 198.842 311.278 199.914 310.916C200.119 310.847 200.255 310.656 200.257 310.439L200.277 308.119C200.281 307.802 199.996 307.559 199.683 307.612L192.774 308.773C192.508 308.818 192.322 309.061 192.352 309.331Z" fill="white"/>
<path d="M155.694 311.151C155.676 311.79 155.638 312.928 155.58 313.769C155.561 314.047 155.767 314.293 156.047 314.331C158.139 314.619 161.475 314.358 162.569 314.259C162.786 314.239 162.958 314.082 162.999 313.869L163.439 311.579C163.499 311.267 163.255 310.964 162.933 310.951L156.2 310.683C155.925 310.672 155.701 310.876 155.694 311.151Z" fill="#FCBD01"/>
<path opacity="0.5" d="M155.694 311.151C155.676 311.79 155.638 312.928 155.58 313.769C155.561 314.047 155.767 314.293 156.047 314.331C158.139 314.619 161.475 314.358 162.569 314.259C162.786 314.239 162.958 314.082 162.999 313.869L163.439 311.579C163.499 311.267 163.255 310.964 162.933 310.951L156.2 310.683C155.925 310.672 155.701 310.876 155.694 311.151Z" fill="white"/>
<path d="M151.039 176.953C151.251 179.259 151.515 182.179 152.508 187.625C153.261 192.245 153.815 196.752 154.908 204.372C165.492 205.483 177.946 204.587 178.492 202.803C177.657 196.206 177.682 187.304 180.056 171.975C180.606 168.421 178.03 165.39 174.522 165.465C173.585 165.485 172.593 165.527 171.579 165.603C167.637 165.896 164.409 166.166 160.967 166.909C159.827 167.156 158.649 167.448 157.526 167.747C153.472 168.827 150.66 172.819 151.039 176.953Z" fill="#FCBD01"/>
<path opacity="0.8" d="M151.039 176.953C151.251 179.259 151.515 182.179 152.508 187.625C153.261 192.245 153.815 196.752 154.908 204.372C165.492 205.483 177.946 204.587 178.492 202.803C177.657 196.206 177.682 187.304 180.056 171.975C180.606 168.421 178.03 165.39 174.522 165.465C173.585 165.485 172.593 165.527 171.579 165.603C167.637 165.896 164.409 166.166 160.967 166.909C159.827 167.156 158.649 167.448 157.526 167.747C153.472 168.827 150.66 172.819 151.039 176.953Z" fill="white"/>
<path d="M152.936 170.795L154.166 172.339C154.216 172.401 154.29 172.434 154.363 172.434C154.419 172.434 154.474 172.417 154.52 172.379C154.629 172.292 154.647 172.134 154.561 172.025L153.267 170.401C153.153 170.53 153.042 170.66 152.936 170.795Z" fill="#263238"/>
<path d="M158.567 169.888C158.572 169.888 158.578 169.889 158.583 169.889C158.715 169.889 158.826 169.786 158.835 169.652L158.978 167.376C158.805 167.419 158.636 167.463 158.464 167.507L158.331 169.62C158.322 169.759 158.428 169.879 158.567 169.888Z" fill="#FCBD01"/>
<path d="M169.609 171.923C169.652 171.951 169.7 171.965 169.748 171.965C169.829 171.965 169.91 171.925 169.958 171.852C170.035 171.736 170.003 171.58 169.887 171.503L163.428 167.237C163.313 167.161 163.157 167.192 163.079 167.309C163.002 167.425 163.034 167.581 163.15 167.658L169.609 171.923Z" fill="#FCBD01"/>
<path d="M158.591 173.353C158.54 173.483 158.604 173.629 158.734 173.679L165.942 176.5C165.972 176.512 166.003 176.518 166.034 176.518C166.134 176.518 166.23 176.457 166.269 176.357C166.32 176.228 166.255 176.082 166.126 176.031L158.918 173.21C158.789 173.158 158.642 173.222 158.591 173.353Z" fill="#263238"/>
<path d="M154.428 186.182C154.47 186.21 154.517 186.223 154.564 186.223C154.646 186.223 154.728 186.182 154.776 186.108L158.976 179.607C159.051 179.49 159.018 179.333 158.9 179.258C158.784 179.183 158.628 179.217 158.552 179.333L154.352 185.834C154.277 185.951 154.31 186.107 154.428 186.182Z" fill="#FCBD01"/>
<path d="M152.373 180.505C152.422 180.551 152.483 180.573 152.545 180.573C152.613 180.573 152.68 180.546 152.73 180.493C152.825 180.392 152.819 180.232 152.718 180.137L151.209 178.724C151.234 178.969 151.26 179.225 151.29 179.491L152.373 180.505Z" fill="#FCBD01"/>
<path d="M175.154 184.807C175.023 184.855 174.955 185 175.003 185.13C175.041 185.232 175.137 185.296 175.24 185.296C175.27 185.296 175.299 185.292 175.327 185.281L178.52 184.113C178.537 183.931 178.556 183.742 178.573 183.557L175.154 184.807Z" fill="#FCBD01"/>
<path d="M173.788 179.603C173.834 179.603 173.88 179.59 173.922 179.565L179.458 176.085C179.488 175.867 179.517 175.652 179.548 175.432L173.654 179.137C173.536 179.211 173.5 179.366 173.574 179.485C173.621 179.561 173.704 179.603 173.788 179.603Z" fill="#FCBD01"/>
<path d="M170.009 180.574C169.934 180.457 169.778 180.422 169.661 180.495L163.108 184.613C162.99 184.688 162.954 184.843 163.028 184.961C163.077 185.037 163.158 185.08 163.242 185.08C163.288 185.08 163.335 185.066 163.376 185.041L169.929 180.922C170.047 180.848 170.082 180.692 170.009 180.574Z" fill="#FCBD01"/>
<path d="M175.534 171.853C175.563 171.853 175.594 171.848 175.623 171.837C175.753 171.788 175.819 171.643 175.77 171.512L173.502 165.499C173.324 165.506 173.15 165.511 172.97 165.519L175.297 171.69C175.336 171.791 175.432 171.853 175.534 171.853Z" fill="#263238"/>
<path d="M169.03 203.32C168.914 203.243 168.757 203.275 168.681 203.392C168.604 203.508 168.635 203.665 168.752 203.741L170.189 204.69C170.469 204.671 170.745 204.652 171.016 204.631L169.03 203.32Z" fill="#FCBD01"/>
<path d="M178.29 200.932L172.698 198.743C172.568 198.692 172.422 198.756 172.371 198.886C172.321 199.016 172.384 199.162 172.514 199.212L178.343 201.493C178.323 201.31 178.308 201.118 178.29 200.932Z" fill="#FCBD01"/>
<path d="M154.657 202.6C154.678 202.755 154.7 202.906 154.722 203.064C154.814 203.024 154.886 202.947 154.883 202.84C154.878 202.714 154.776 202.599 154.657 202.6Z" fill="#263238"/>
<path d="M154.587 194.871C154.659 194.871 154.731 194.84 154.78 194.781C154.87 194.674 154.856 194.515 154.749 194.425L153.353 193.251C153.388 193.498 153.423 193.746 153.458 193.999L154.424 194.812C154.472 194.852 154.53 194.871 154.587 194.871Z" fill="#FCBD01"/>
<path d="M166.387 192.346C166.487 192.346 166.583 192.285 166.622 192.185C166.672 192.055 166.609 191.909 166.479 191.859L159.273 189.036C159.144 188.985 158.997 189.049 158.946 189.178C158.895 189.308 158.959 189.454 159.088 189.505L166.295 192.328C166.325 192.34 166.356 192.346 166.387 192.346Z" fill="#263238"/>
<path d="M164.717 195.679L158.164 199.797C158.046 199.872 158.01 200.027 158.085 200.145C158.132 200.221 158.215 200.264 158.298 200.264C158.344 200.264 158.39 200.251 158.432 200.225L164.985 196.106C165.103 196.032 165.139 195.877 165.064 195.759C164.991 195.64 164.834 195.606 164.717 195.679Z" fill="#FCBD01"/>
<path d="M170.768 193.721C170.816 193.797 170.898 193.839 170.982 193.839C171.028 193.839 171.074 193.826 171.115 193.801L177.669 189.682C177.786 189.608 177.822 189.453 177.748 189.334C177.674 189.216 177.517 189.181 177.4 189.254L170.846 193.373C170.729 193.448 170.694 193.603 170.768 193.721Z" fill="#263238"/>
<path d="M163.342 203.554C163.293 203.423 163.148 203.358 163.017 203.407C162.887 203.456 162.821 203.601 162.87 203.732L163.292 204.85C163.472 204.852 163.654 204.855 163.833 204.856L163.342 203.554Z" fill="#263238"/>
<path d="M158.008 177.105C157.95 177.606 157.901 177.96 157.84 178.367C157.781 178.762 157.703 179.147 157.631 179.532C157.482 180.301 157.313 181.06 157.135 181.817C156.76 183.325 156.311 184.815 155.772 186.282C155.252 187.754 154.628 189.201 153.922 190.618C153.243 192.046 152.396 193.42 151.515 194.766L151.356 195.01C151.263 195.152 151.148 195.287 151.031 195.399C149.623 196.732 148.349 197.619 147.034 198.544C145.732 199.453 144.406 200.284 143.084 201.102C141.752 201.904 140.414 202.684 139.056 203.427C137.684 204.153 136.333 204.885 134.911 205.549C133.867 206.037 132.624 205.587 132.136 204.542C131.745 203.707 131.955 202.745 132.589 202.143L132.607 202.127C133.709 201.084 134.861 200.081 135.981 199.056L139.374 196.052C140.508 195.067 141.61 194.06 142.699 193.081C143.242 192.589 143.764 192.097 144.264 191.605L144.977 190.886C145.206 190.651 145.376 190.44 145.58 190.221L145.096 190.853C145.663 189.717 146.206 188.569 146.674 187.359C147.141 186.154 147.573 184.923 147.95 183.663C148.323 182.405 148.675 181.131 148.975 179.845C149.128 179.203 149.274 178.559 149.4 177.918L149.741 176.095L149.785 175.861C150.207 173.603 152.382 172.113 154.64 172.537C156.799 172.938 158.252 174.956 158.008 177.105Z" fill="#FF8B7B"/>
<path d="M134.612 201.962L130.305 200.687C129.588 200.475 128.82 200.526 128.138 200.83L126.256 201.668C125.332 202.08 124.927 203.171 125.358 204.085L126.217 205.909C126.573 206.663 127.399 207.076 128.215 206.907L131.586 206.21C131.586 206.21 133.258 206.336 134.778 205.763C135.98 205.309 136.428 203.835 135.711 202.768C135.449 202.38 135.061 202.095 134.612 201.962Z" fill="#FF8B7B"/>
<path d="M156.055 168.366C152.424 169.729 149.319 172.898 147.826 181.078C149.804 183.6 156.881 184.932 156.881 184.932C156.881 184.932 162.166 174.092 156.055 168.366Z" fill="#FCBD01"/>
<path opacity="0.8" d="M156.055 168.366C152.424 169.729 149.319 172.898 147.826 181.078C149.804 183.6 156.881 184.932 156.881 184.932C156.881 184.932 162.166 174.092 156.055 168.366Z" fill="white"/>
<path d="M154.166 172.339C154.216 172.401 154.289 172.434 154.363 172.434C154.418 172.434 154.474 172.417 154.52 172.379C154.629 172.292 154.647 172.134 154.56 172.025L153.036 170.11C152.908 170.217 152.782 170.329 152.656 170.444L154.166 172.339Z" fill="#263238"/>
<path d="M158.591 173.353C158.54 173.483 158.604 173.629 158.734 173.679L158.819 173.713C158.791 173.546 158.761 173.379 158.725 173.213C158.666 173.239 158.616 173.288 158.591 173.353Z" fill="#263238"/>
<path d="M155.702 184.674L158.418 180.469C158.514 180.076 158.602 179.667 158.68 179.245C158.631 179.263 158.582 179.287 158.552 179.333L155.184 184.548C155.369 184.594 155.541 184.636 155.702 184.674Z" fill="#FCBD01"/>
<path d="M152.373 180.505C152.422 180.551 152.483 180.573 152.545 180.573C152.613 180.573 152.68 180.546 152.73 180.493C152.825 180.392 152.82 180.232 152.718 180.137L148.958 176.616C148.899 176.791 148.84 176.963 148.782 177.143L152.373 180.505Z" fill="#FCBD01"/>
<path d="M256.521 251.768C255.45 247.607 256.741 246.022 258.257 244.361C259.774 242.701 259.596 239.927 259.596 239.927C259.596 239.927 261.952 244.613 261.261 250.154C260.571 255.695 257.304 254.806 256.521 251.768Z" fill="#263238"/>
<path d="M263.106 285.33C261.516 282.665 254.749 277.044 249.61 279.252C253.719 280.959 258.251 291.345 264.331 290.91C263.285 286.145 263.106 285.33 263.106 285.33Z" fill="#263238"/>
<path d="M267.89 308.4C267.565 308.4 267.269 308.178 267.189 307.849C266.199 303.783 257.419 267.377 253.981 241.533C253.928 241.137 254.206 240.774 254.601 240.722C254.999 240.664 255.36 240.947 255.412 241.342C258.841 267.112 267.604 303.449 268.593 307.507C268.687 307.895 268.449 308.286 268.062 308.38C268.004 308.393 267.946 308.4 267.89 308.4Z" fill="#FCBD01"/>
<path d="M255.762 243.103C255.855 240.054 254.431 238.177 250.859 237.849C247.286 237.521 246.156 236.032 245.489 234.642C246.694 241.661 255.11 243.417 255.93 246.882C255.762 244.286 255.762 243.103 255.762 243.103Z" fill="#FCBD01"/>
<path d="M257.364 254.685C257.069 251.489 254.49 251.049 251.551 250.664C248.613 250.278 247.638 248.393 247.638 248.393C247.638 248.393 246.301 252.519 249.767 255.806C253.232 259.093 257.579 257.019 257.364 254.685Z" fill="#FCBD01"/>
<path d="M262.252 282.891C261.745 279.322 264.194 277.844 263.814 272.604C270.828 284.593 263.048 288.493 262.252 282.891Z" fill="#FCBD01"/>
<path d="M258.969 268.328C256.99 265.315 254.176 265.825 250.998 261.641C253.659 275.273 262.075 273.057 258.969 268.328Z" fill="#FCBD01"/>
<path d="M273.754 269.043C273.929 264.223 269.46 261.68 266.039 256.863C268.119 266.45 273.481 276.606 273.754 269.043Z" fill="#263238"/>
<path d="M271.555 304.06C271.533 304.06 271.511 304.06 271.488 304.058C271.021 304.021 270.671 303.613 270.708 303.145C271.508 293.019 274.333 249.373 273.542 220.835C273.529 220.366 273.899 219.976 274.367 219.963C274.864 219.957 275.226 220.319 275.239 220.788C276.031 249.401 273.201 293.133 272.4 303.279C272.366 303.722 271.994 304.06 271.555 304.06Z" fill="#FCBD01"/>
<path d="M273.745 223.123C272.672 217.284 274.863 213.256 281.643 211.579C288.422 209.902 290.159 206.707 291.036 203.837C290.771 217.696 275.089 223.536 274.526 230.445C274.092 225.4 273.745 223.123 273.745 223.123Z" fill="#FCBD01"/>
<path d="M274.266 234.928C275.351 227.929 270.066 225.606 263.985 223.205C257.904 220.805 256.828 216.247 256.828 216.247C256.828 216.247 251.755 224.36 257.408 233.252C263.06 242.145 273.473 240.038 274.266 234.928Z" fill="#FCBD01"/>
<path d="M274.234 252.81C275.401 247.257 280.02 247.01 285.257 246.931C290.495 246.852 292.591 243.74 292.591 243.74C292.591 243.74 294.099 251.257 287.346 256.323C280.593 261.39 273.383 256.864 274.234 252.81Z" fill="#FCBD01"/>
<path d="M273.258 279.788C274.528 276.371 281.154 268.439 287.56 269.899C283.175 272.744 280.145 285.706 273.027 286.494C273.224 280.766 273.258 279.788 273.258 279.788Z" fill="#FCBD01"/>
<path d="M279.383 296.565H258.011C256.826 296.565 255.974 297.705 256.31 298.841L262.095 318.393C262.318 319.146 263.01 319.663 263.795 319.663H273.599C274.384 319.663 275.076 319.146 275.299 318.393L281.084 298.841C281.419 297.705 280.568 296.565 279.383 296.565Z" fill="#FCBD01"/>
<path opacity="0.2" d="M279.383 296.565H258.011C256.826 296.565 255.974 297.705 256.31 298.841L262.095 318.393C262.318 319.146 263.01 319.663 263.795 319.663H273.599C274.384 319.663 275.076 319.146 275.299 318.393L281.084 298.841C281.419 297.705 280.568 296.565 279.383 296.565Z" fill="#FCBD01"/>
<path opacity="0.7" d="M279.383 296.565H258.011C256.826 296.565 255.974 297.705 256.31 298.841L262.095 318.393C262.318 319.146 263.01 319.663 263.795 319.663H273.599C274.384 319.663 275.076 319.146 275.299 318.393L281.084 298.841C281.419 297.705 280.568 296.565 279.383 296.565Z" fill="white"/>
<path d="M100.013 372.971H96.6097L88.9039 361.327V372.971H85.5008V355.979H88.9039L96.6097 367.647V355.979H100.013V372.971ZM109.356 373.19C108.059 373.19 106.893 372.906 105.855 372.339C104.818 371.755 104 370.937 103.4 369.884C102.817 368.83 102.525 367.615 102.525 366.237C102.525 364.86 102.825 363.645 103.425 362.591C104.04 361.538 104.875 360.728 105.928 360.16C106.982 359.577 108.157 359.285 109.453 359.285C110.749 359.285 111.924 359.577 112.978 360.16C114.031 360.728 114.858 361.538 115.457 362.591C116.073 363.645 116.381 364.86 116.381 366.237C116.381 367.615 116.065 368.83 115.433 369.884C114.817 370.937 113.974 371.755 112.905 372.339C111.851 372.906 110.668 373.19 109.356 373.19ZM109.356 370.224C109.972 370.224 110.547 370.078 111.082 369.786C111.633 369.479 112.07 369.025 112.394 368.425C112.718 367.826 112.88 367.096 112.88 366.237C112.88 364.957 112.54 363.977 111.86 363.296C111.195 362.599 110.377 362.251 109.404 362.251C108.432 362.251 107.614 362.599 106.949 363.296C106.301 363.977 105.977 364.957 105.977 366.237C105.977 367.518 106.293 368.506 106.925 369.203C107.573 369.884 108.383 370.224 109.356 370.224ZM137.042 361.254C137.042 362.162 136.824 363.012 136.386 363.807C135.965 364.601 135.292 365.241 134.368 365.727C133.461 366.213 132.31 366.456 130.917 366.456H128.073V372.971H124.669V356.004H130.917C132.229 356.004 133.347 356.23 134.271 356.684C135.195 357.138 135.884 357.762 136.337 358.556C136.807 359.35 137.042 360.249 137.042 361.254ZM130.771 363.709C131.711 363.709 132.408 363.499 132.861 363.077C133.315 362.64 133.542 362.032 133.542 361.254C133.542 359.601 132.618 358.775 130.771 358.775H128.073V363.709H130.771ZM142.862 361.595C143.299 360.881 143.866 360.322 144.563 359.917C145.276 359.512 146.087 359.31 146.994 359.31V362.883H146.095C145.025 362.883 144.215 363.134 143.664 363.636C143.129 364.139 142.862 365.014 142.862 366.262V372.971H139.459V359.504H142.862V361.595ZM155.266 373.19C153.97 373.19 152.803 372.906 151.766 372.339C150.729 371.755 149.91 370.937 149.311 369.884C148.727 368.83 148.436 367.615 148.436 366.237C148.436 364.86 148.735 363.645 149.335 362.591C149.951 361.538 150.785 360.728 151.839 360.16C152.892 359.577 154.067 359.285 155.363 359.285C156.66 359.285 157.835 359.577 158.888 360.16C159.941 360.728 160.768 361.538 161.368 362.591C161.983 363.645 162.291 364.86 162.291 366.237C162.291 367.615 161.975 368.83 161.343 369.884C160.727 370.937 159.885 371.755 158.815 372.339C157.762 372.906 156.579 373.19 155.266 373.19ZM155.266 370.224C155.882 370.224 156.457 370.078 156.992 369.786C157.543 369.479 157.981 369.025 158.305 368.425C158.629 367.826 158.791 367.096 158.791 366.237C158.791 364.957 158.451 363.977 157.77 363.296C157.105 362.599 156.287 362.251 155.315 362.251C154.342 362.251 153.524 362.599 152.86 363.296C152.211 363.977 151.887 364.957 151.887 366.237C151.887 367.518 152.203 368.506 152.835 369.203C153.484 369.884 154.294 370.224 155.266 370.224ZM163.913 366.189C163.913 364.828 164.18 363.62 164.715 362.567C165.266 361.513 166.011 360.703 166.951 360.136C167.891 359.569 168.936 359.285 170.087 359.285C170.962 359.285 171.797 359.48 172.591 359.869C173.385 360.241 174.017 360.744 174.487 361.376V354.983H177.938V372.971H174.487V370.978C174.065 371.642 173.474 372.177 172.712 372.582C171.95 372.987 171.067 373.19 170.063 373.19C168.928 373.19 167.891 372.898 166.951 372.314C166.011 371.731 165.266 370.913 164.715 369.859C164.18 368.79 163.913 367.566 163.913 366.189ZM174.511 366.237C174.511 365.411 174.349 364.706 174.025 364.123C173.701 363.523 173.263 363.069 172.712 362.761C172.161 362.437 171.57 362.275 170.938 362.275C170.306 362.275 169.722 362.429 169.187 362.737C168.653 363.045 168.215 363.499 167.875 364.098C167.551 364.682 167.389 365.379 167.389 366.189C167.389 366.999 167.551 367.712 167.875 368.328C168.215 368.928 168.653 369.389 169.187 369.713C169.738 370.038 170.322 370.2 170.938 370.2C171.57 370.2 172.161 370.046 172.712 369.738C173.263 369.414 173.701 368.96 174.025 368.377C174.349 367.777 174.511 367.064 174.511 366.237ZM193.975 359.504V372.971H190.548V371.269C190.11 371.853 189.535 372.314 188.822 372.655C188.125 372.979 187.364 373.141 186.537 373.141C185.484 373.141 184.552 372.922 183.742 372.485C182.931 372.031 182.291 371.375 181.821 370.516C181.368 369.641 181.141 368.603 181.141 367.404V359.504H184.544V366.918C184.544 367.988 184.811 368.814 185.346 369.397C185.881 369.965 186.61 370.248 187.534 370.248C188.474 370.248 189.211 369.965 189.746 369.397C190.281 368.814 190.548 367.988 190.548 366.918V359.504H193.975ZM196.458 366.237C196.458 364.844 196.742 363.628 197.309 362.591C197.876 361.538 198.662 360.728 199.667 360.16C200.672 359.577 201.822 359.285 203.119 359.285C204.788 359.285 206.165 359.707 207.251 360.549C208.353 361.376 209.09 362.543 209.463 364.05H205.792C205.598 363.466 205.266 363.012 204.796 362.688C204.342 362.348 203.775 362.178 203.094 362.178C202.122 362.178 201.352 362.534 200.785 363.247C200.218 363.944 199.934 364.941 199.934 366.237C199.934 367.518 200.218 368.514 200.785 369.227C201.352 369.924 202.122 370.273 203.094 370.273C204.472 370.273 205.371 369.657 205.792 368.425H209.463C209.09 369.884 208.353 371.042 207.251 371.901C206.149 372.76 204.772 373.19 203.119 373.19C201.822 373.19 200.672 372.906 199.667 372.339C198.662 371.755 197.876 370.945 197.309 369.908C196.742 368.855 196.458 367.631 196.458 366.237ZM215.918 362.299V368.814C215.918 369.268 216.024 369.6 216.234 369.811C216.461 370.005 216.834 370.102 217.353 370.102H218.933V372.971H216.794C213.925 372.971 212.491 371.577 212.491 368.79V362.299H210.887V359.504H212.491V356.174H215.918V359.504H218.933V362.299H215.918ZM226.534 373.19C225.432 373.19 224.443 372.995 223.568 372.606C222.693 372.201 221.996 371.658 221.478 370.978C220.975 370.297 220.7 369.543 220.651 368.717H224.079C224.143 369.235 224.395 369.665 224.832 370.005C225.286 370.345 225.845 370.516 226.509 370.516C227.158 370.516 227.66 370.386 228.017 370.127C228.389 369.867 228.576 369.535 228.576 369.13C228.576 368.693 228.349 368.368 227.895 368.158C227.457 367.931 226.753 367.688 225.78 367.429C224.775 367.185 223.949 366.934 223.301 366.675C222.669 366.416 222.118 366.019 221.648 365.484C221.194 364.949 220.967 364.228 220.967 363.32C220.967 362.575 221.178 361.894 221.599 361.279C222.037 360.663 222.653 360.177 223.447 359.82C224.257 359.463 225.205 359.285 226.291 359.285C227.895 359.285 229.175 359.69 230.131 360.501C231.087 361.295 231.614 362.372 231.711 363.734H228.454C228.405 363.199 228.179 362.778 227.773 362.47C227.385 362.145 226.858 361.983 226.193 361.983C225.578 361.983 225.1 362.097 224.759 362.324C224.435 362.551 224.273 362.867 224.273 363.272C224.273 363.726 224.5 364.074 224.954 364.317C225.407 364.544 226.112 364.779 227.069 365.022C228.041 365.265 228.843 365.516 229.475 365.776C230.107 366.035 230.65 366.44 231.104 366.991C231.574 367.526 231.817 368.239 231.833 369.13C231.833 369.908 231.614 370.605 231.177 371.221C230.755 371.836 230.139 372.323 229.329 372.679C228.535 373.019 227.603 373.19 226.534 373.19ZM243.822 370.273H249.413V372.971H240.419V356.004H243.822V370.273ZM253.302 357.9C252.702 357.9 252.2 357.713 251.795 357.341C251.406 356.952 251.211 356.474 251.211 355.906C251.211 355.339 251.406 354.869 251.795 354.496C252.2 354.108 252.702 353.913 253.302 353.913C253.901 353.913 254.396 354.108 254.785 354.496C255.19 354.869 255.392 355.339 255.392 355.906C255.392 356.474 255.19 356.952 254.785 357.341C254.396 357.713 253.901 357.9 253.302 357.9ZM254.979 359.504V372.971H251.576V359.504H254.979ZM263.495 373.19C262.393 373.19 261.404 372.995 260.529 372.606C259.654 372.201 258.957 371.658 258.439 370.978C257.936 370.297 257.661 369.543 257.612 368.717H261.04C261.104 369.235 261.356 369.665 261.793 370.005C262.247 370.345 262.806 370.516 263.47 370.516C264.119 370.516 264.621 370.386 264.978 370.127C265.35 369.867 265.537 369.535 265.537 369.13C265.537 368.693 265.31 368.368 264.856 368.158C264.418 367.931 263.713 367.688 262.741 367.429C261.736 367.185 260.91 366.934 260.262 366.675C259.63 366.416 259.079 366.019 258.609 365.484C258.155 364.949 257.928 364.228 257.928 363.32C257.928 362.575 258.139 361.894 258.56 361.279C258.998 360.663 259.613 360.177 260.408 359.82C261.218 359.463 262.166 359.285 263.252 359.285C264.856 359.285 266.136 359.69 267.092 360.501C268.048 361.295 268.575 362.372 268.672 363.734H265.415C265.366 363.199 265.14 362.778 264.734 362.47C264.345 362.145 263.819 361.983 263.154 361.983C262.539 361.983 262.061 362.097 261.72 362.324C261.396 362.551 261.234 362.867 261.234 363.272C261.234 363.726 261.461 364.074 261.915 364.317C262.368 364.544 263.073 364.779 264.029 365.022C265.002 365.265 265.804 365.516 266.436 365.776C267.068 366.035 267.611 366.44 268.065 366.991C268.535 367.526 268.778 368.239 268.794 369.13C268.794 369.908 268.575 370.605 268.138 371.221C267.716 371.836 267.1 372.323 266.29 372.679C265.496 373.019 264.564 373.19 263.495 373.19ZM275.55 362.299V368.814C275.55 369.268 275.655 369.6 275.866 369.811C276.093 370.005 276.465 370.102 276.984 370.102H278.564V372.971H276.425C273.556 372.971 272.122 371.577 272.122 368.79V362.299H270.518V359.504H272.122V356.174H275.55V359.504H278.564V362.299H275.55ZM293.53 365.946C293.53 366.432 293.498 366.869 293.433 367.258H283.588C283.669 368.231 284.01 368.992 284.609 369.543C285.209 370.094 285.946 370.37 286.821 370.37C288.085 370.37 288.985 369.827 289.52 368.741H293.19C292.801 370.038 292.056 371.107 290.954 371.95C289.852 372.776 288.499 373.19 286.894 373.19C285.598 373.19 284.431 372.906 283.394 372.339C282.373 371.755 281.571 370.937 280.987 369.884C280.42 368.83 280.137 367.615 280.137 366.237C280.137 364.844 280.42 363.62 280.987 362.567C281.555 361.513 282.349 360.703 283.37 360.136C284.391 359.569 285.565 359.285 286.894 359.285C288.174 359.285 289.317 359.561 290.322 360.112C291.343 360.663 292.129 361.449 292.68 362.47C293.247 363.474 293.53 364.633 293.53 365.946ZM290.006 364.973C289.99 364.098 289.674 363.401 289.058 362.883C288.442 362.348 287.688 362.081 286.797 362.081C285.954 362.081 285.241 362.34 284.658 362.859C284.091 363.361 283.742 364.066 283.613 364.973H290.006ZM295.139 366.189C295.139 364.828 295.407 363.62 295.942 362.567C296.492 361.513 297.238 360.703 298.178 360.136C299.118 359.569 300.163 359.285 301.314 359.285C302.189 359.285 303.023 359.48 303.817 359.869C304.611 360.241 305.243 360.744 305.713 361.376V354.983H309.165V372.971H305.713V370.978C305.292 371.642 304.701 372.177 303.939 372.582C303.177 372.987 302.294 373.19 301.289 373.19C300.155 373.19 299.118 372.898 298.178 372.314C297.238 371.731 296.492 370.913 295.942 369.859C295.407 368.79 295.139 367.566 295.139 366.189ZM305.738 366.237C305.738 365.411 305.576 364.706 305.252 364.123C304.927 363.523 304.49 363.069 303.939 362.761C303.388 362.437 302.796 362.275 302.164 362.275C301.532 362.275 300.949 362.429 300.414 362.737C299.879 363.045 299.442 363.499 299.102 364.098C298.777 364.682 298.615 365.379 298.615 366.189C298.615 366.999 298.777 367.712 299.102 368.328C299.442 368.928 299.879 369.389 300.414 369.713C300.965 370.038 301.549 370.2 302.164 370.2C302.796 370.2 303.388 370.046 303.939 369.738C304.49 369.414 304.927 368.96 305.252 368.377C305.576 367.777 305.738 367.064 305.738 366.237Z" fill="#EE1D52"/>
<path d="M29.1858 405.519H22.1121L20.8966 408.971H18.004L24.0567 392.052H27.2654L33.3182 408.971H30.4012L29.1858 405.519ZM28.4079 403.258L25.6611 395.407L22.8899 403.258H28.4079ZM35.0262 402.262C35.0262 400.884 35.3017 399.677 35.8527 398.64C36.4199 397.586 37.1978 396.776 38.1863 396.209C39.1748 395.642 40.3092 395.358 41.5895 395.358C43.21 395.358 44.547 395.747 45.6003 396.525C46.6699 397.287 47.391 398.38 47.7638 399.807H44.7739C44.5308 399.142 44.1418 398.624 43.6071 398.251C43.0723 397.878 42.3997 397.692 41.5895 397.692C40.4551 397.692 39.5476 398.097 38.8669 398.907C38.2025 399.701 37.8703 400.819 37.8703 402.262C37.8703 403.704 38.2025 404.83 38.8669 405.641C39.5476 406.451 40.4551 406.856 41.5895 406.856C43.1938 406.856 44.2553 406.151 44.7739 404.741H47.7638C47.3748 406.102 46.6456 407.188 45.576 407.998C44.5065 408.793 43.1776 409.19 41.5895 409.19C40.3092 409.19 39.1748 408.906 38.1863 408.339C37.1978 407.755 36.4199 406.945 35.8527 405.908C35.3017 404.855 35.0262 403.639 35.0262 402.262ZM49.6017 402.262C49.6017 400.884 49.8772 399.677 50.4282 398.64C50.9954 397.586 51.7732 396.776 52.7618 396.209C53.7503 395.642 54.8847 395.358 56.1649 395.358C57.7855 395.358 59.1225 395.747 60.1758 396.525C61.2454 397.287 61.9665 398.38 62.3393 399.807H59.3493C59.1063 399.142 58.7173 398.624 58.1825 398.251C57.6478 397.878 56.9752 397.692 56.1649 397.692C55.0306 397.692 54.123 398.097 53.4424 398.907C52.778 399.701 52.4458 400.819 52.4458 402.262C52.4458 403.704 52.778 404.83 53.4424 405.641C54.123 406.451 55.0306 406.856 56.1649 406.856C57.7693 406.856 58.8308 406.151 59.3493 404.741H62.3393C61.9503 406.102 61.2211 407.188 60.1515 407.998C59.0819 408.793 57.7531 409.19 56.1649 409.19C54.8847 409.19 53.7503 408.906 52.7618 408.339C51.7732 407.755 50.9954 406.945 50.4282 405.908C49.8772 404.855 49.6017 403.639 49.6017 402.262ZM77.3766 401.946C77.3766 402.448 77.3442 402.902 77.2794 403.307H67.0456C67.1266 404.377 67.5236 405.235 68.2367 405.884C68.9497 406.532 69.8248 406.856 70.862 406.856C72.3529 406.856 73.4062 406.232 74.0221 404.984H77.012C76.6068 406.216 75.8695 407.229 74.7999 408.023C73.7466 408.801 72.4339 409.19 70.862 409.19C69.5817 409.19 68.4311 408.906 67.4102 408.339C66.4055 407.755 65.6114 406.945 65.028 405.908C64.4608 404.855 64.1772 403.639 64.1772 402.262C64.1772 400.884 64.4527 399.677 65.0037 398.64C65.5709 397.586 66.3568 396.776 67.3616 396.209C68.3825 395.642 69.5493 395.358 70.862 395.358C72.126 395.358 73.2523 395.634 74.2408 396.185C75.2294 396.736 75.9991 397.513 76.5501 398.518C77.1011 399.507 77.3766 400.649 77.3766 401.946ZM74.4839 401.071C74.4677 400.05 74.1031 399.231 73.39 398.615C72.677 398 71.7938 397.692 70.7404 397.692C69.7843 397.692 68.9659 398 68.2853 398.615C67.6047 399.215 67.1995 400.033 67.0699 401.071H74.4839ZM82.8748 397.546C83.3448 396.93 83.9849 396.412 84.7952 395.99C85.6055 395.569 86.5211 395.358 87.542 395.358C88.7088 395.358 89.7703 395.65 90.7264 396.233C91.6987 396.8 92.4604 397.603 93.0114 398.64C93.5624 399.677 93.8379 400.868 93.8379 402.213C93.8379 403.558 93.5624 404.765 93.0114 405.835C92.4604 406.888 91.6987 407.715 90.7264 408.314C89.7703 408.898 88.7088 409.19 87.542 409.19C86.5211 409.19 85.6136 408.987 84.8195 408.582C84.0254 408.161 83.3772 407.642 82.8748 407.026V415.34H80.1037V395.577H82.8748V397.546ZM91.0181 402.213C91.0181 401.289 90.8236 400.495 90.4347 399.831C90.062 399.15 89.5596 398.64 88.9276 398.299C88.3118 397.943 87.6474 397.765 86.9343 397.765C86.2375 397.765 85.573 397.943 84.941 398.299C84.3252 398.656 83.8229 399.175 83.4339 399.855C83.0612 400.536 82.8748 401.338 82.8748 402.262C82.8748 403.185 83.0612 403.996 83.4339 404.693C83.8229 405.373 84.3252 405.892 84.941 406.248C85.573 406.605 86.2375 406.783 86.9343 406.783C87.6474 406.783 88.3118 406.605 88.9276 406.248C89.5596 405.876 90.062 405.341 90.4347 404.644C90.8236 403.947 91.0181 403.137 91.0181 402.213ZM99.8113 397.838V405.252C99.8113 405.754 99.9247 406.119 100.152 406.345C100.395 406.556 100.8 406.662 101.367 406.662H103.069V408.971H100.881C99.633 408.971 98.6769 408.679 98.0124 408.096C97.348 407.512 97.0158 406.564 97.0158 405.252V397.838H95.4358V395.577H97.0158V392.247H99.8113V395.577H103.069V397.838H99.8113ZM111.013 402.262C111.013 400.884 111.289 399.677 111.84 398.64C112.407 397.586 113.185 396.776 114.173 396.209C115.162 395.642 116.296 395.358 117.577 395.358C119.197 395.358 120.534 395.747 121.588 396.525C122.657 397.287 123.378 398.38 123.751 399.807H120.761C120.518 399.142 120.129 398.624 119.594 398.251C119.059 397.878 118.387 397.692 117.577 397.692C116.442 397.692 115.535 398.097 114.854 398.907C114.19 399.701 113.857 400.819 113.857 402.262C113.857 403.704 114.19 404.83 114.854 405.641C115.535 406.451 116.442 406.856 117.577 406.856C119.181 406.856 120.242 406.151 120.761 404.741H123.751C123.362 406.102 122.633 407.188 121.563 407.998C120.494 408.793 119.165 409.19 117.577 409.19C116.296 409.19 115.162 408.906 114.173 408.339C113.185 407.755 112.407 406.945 111.84 405.908C111.289 404.855 111.013 403.639 111.013 402.262ZM133.44 395.358C134.461 395.358 135.369 395.577 136.163 396.014C136.973 396.452 137.605 397.1 138.059 397.959C138.529 398.818 138.764 399.855 138.764 401.071V408.971H136.017V401.484C136.017 400.285 135.717 399.369 135.118 398.737C134.518 398.089 133.7 397.765 132.663 397.765C131.625 397.765 130.799 398.089 130.183 398.737C129.584 399.369 129.284 400.285 129.284 401.484V408.971H126.513V390.983H129.284V397.133C129.754 396.565 130.345 396.128 131.058 395.82C131.787 395.512 132.582 395.358 133.44 395.358ZM141.375 402.213C141.375 400.868 141.651 399.677 142.202 398.64C142.769 397.603 143.53 396.8 144.486 396.233C145.459 395.65 146.528 395.358 147.695 395.358C148.749 395.358 149.664 395.569 150.442 395.99C151.236 396.395 151.868 396.906 152.338 397.522V395.577H155.134V408.971H152.338V406.978C151.868 407.61 151.228 408.136 150.418 408.558C149.607 408.979 148.684 409.19 147.647 409.19C146.496 409.19 145.443 408.898 144.486 408.314C143.53 407.715 142.769 406.888 142.202 405.835C141.651 404.765 141.375 403.558 141.375 402.213ZM152.338 402.262C152.338 401.338 152.144 400.536 151.755 399.855C151.382 399.175 150.888 398.656 150.272 398.299C149.656 397.943 148.992 397.765 148.279 397.765C147.566 397.765 146.901 397.943 146.285 398.299C145.669 398.64 145.167 399.15 144.778 399.831C144.405 400.495 144.219 401.289 144.219 402.213C144.219 403.137 144.405 403.947 144.778 404.644C145.167 405.341 145.669 405.876 146.285 406.248C146.917 406.605 147.582 406.783 148.279 406.783C148.992 406.783 149.656 406.605 150.272 406.248C150.888 405.892 151.382 405.373 151.755 404.693C152.144 403.996 152.338 403.185 152.338 402.262ZM162.006 397.838V405.252C162.006 405.754 162.12 406.119 162.347 406.345C162.59 406.556 162.995 406.662 163.562 406.662H165.264V408.971H163.076C161.828 408.971 160.872 408.679 160.208 408.096C159.543 407.512 159.211 406.564 159.211 405.252V397.838H157.631V395.577H159.211V392.247H162.006V395.577H165.264V397.838H162.006ZM176.903 397.522C177.308 396.841 177.843 396.314 178.508 395.942C179.188 395.553 179.99 395.358 180.914 395.358V398.227H180.209C179.123 398.227 178.297 398.502 177.73 399.053C177.179 399.604 176.903 400.56 176.903 401.921V408.971H174.132V395.577H176.903V397.522ZM195.737 401.946C195.737 402.448 195.705 402.902 195.64 403.307H185.406C185.487 404.377 185.884 405.235 186.597 405.884C187.31 406.532 188.185 406.856 189.222 406.856C190.713 406.856 191.767 406.232 192.383 404.984H195.372C194.967 406.216 194.23 407.229 193.16 408.023C192.107 408.801 190.794 409.19 189.222 409.19C187.942 409.19 186.792 408.906 185.771 408.339C184.766 407.755 183.972 406.945 183.389 405.908C182.821 404.855 182.538 403.639 182.538 402.262C182.538 400.884 182.813 399.677 183.364 398.64C183.931 397.586 184.717 396.776 185.722 396.209C186.743 395.642 187.91 395.358 189.222 395.358C190.487 395.358 191.613 395.634 192.601 396.185C193.59 396.736 194.36 397.513 194.911 398.518C195.462 399.507 195.737 400.649 195.737 401.946ZM192.844 401.071C192.828 400.05 192.464 399.231 191.751 398.615C191.038 398 190.154 397.692 189.101 397.692C188.145 397.692 187.326 398 186.646 398.615C185.965 399.215 185.56 400.033 185.43 401.071H192.844ZM197.54 402.213C197.54 400.868 197.816 399.677 198.367 398.64C198.934 397.603 199.696 396.8 200.652 396.233C201.624 395.65 202.702 395.358 203.885 395.358C204.922 395.358 205.838 395.569 206.632 395.99C207.442 396.412 208.066 396.922 208.504 397.522V395.577H211.299V415.34H208.504V407.026C208.066 407.626 207.434 408.136 206.607 408.558C205.781 408.979 204.841 409.19 203.788 409.19C202.637 409.19 201.584 408.898 200.628 408.314C199.688 407.715 198.934 406.888 198.367 405.835C197.816 404.765 197.54 403.558 197.54 402.213ZM208.504 402.262C208.504 401.338 208.309 400.536 207.92 399.855C207.547 399.175 207.053 398.656 206.437 398.299C205.822 397.943 205.157 397.765 204.444 397.765C203.731 397.765 203.067 397.943 202.451 398.299C201.835 398.64 201.333 399.15 200.944 399.831C200.571 400.495 200.385 401.289 200.385 402.213C200.385 403.137 200.571 403.947 200.944 404.644C201.333 405.341 201.835 405.876 202.451 406.248C203.083 406.605 203.747 406.783 204.444 406.783C205.157 406.783 205.822 406.605 206.437 406.248C207.053 405.892 207.547 405.373 207.92 404.693C208.309 403.996 208.504 403.185 208.504 402.262ZM227.069 395.577V408.971H224.297V407.391C223.86 407.942 223.285 408.379 222.572 408.703C221.875 409.011 221.129 409.165 220.335 409.165C219.282 409.165 218.334 408.946 217.491 408.509C216.665 408.071 216.008 407.423 215.522 406.564C215.052 405.705 214.817 404.668 214.817 403.453V395.577H217.564V403.04C217.564 404.239 217.864 405.162 218.463 405.811C219.063 406.443 219.881 406.759 220.919 406.759C221.956 406.759 222.774 406.443 223.374 405.811C223.99 405.162 224.297 404.239 224.297 403.04V395.577H227.069ZM243.001 401.946C243.001 402.448 242.968 402.902 242.903 403.307H232.67C232.751 404.377 233.148 405.235 233.861 405.884C234.574 406.532 235.449 406.856 236.486 406.856C237.977 406.856 239.03 406.232 239.646 404.984H242.636C242.231 406.216 241.494 407.229 240.424 408.023C239.371 408.801 238.058 409.19 236.486 409.19C235.206 409.19 234.055 408.906 233.034 408.339C232.029 407.755 231.235 406.945 230.652 405.908C230.085 404.855 229.801 403.639 229.801 402.262C229.801 400.884 230.077 399.677 230.628 398.64C231.195 397.586 231.981 396.776 232.986 396.209C234.007 395.642 235.173 395.358 236.486 395.358C237.75 395.358 238.876 395.634 239.865 396.185C240.853 396.736 241.623 397.513 242.174 398.518C242.725 399.507 243.001 400.649 243.001 401.946ZM240.108 401.071C240.092 400.05 239.727 399.231 239.014 398.615C238.301 398 237.418 397.692 236.364 397.692C235.408 397.692 234.59 398 233.909 398.615C233.229 399.215 232.824 400.033 232.694 401.071H240.108ZM250.589 409.19C249.536 409.19 248.588 409.003 247.745 408.63C246.919 408.242 246.262 407.723 245.776 407.075C245.29 406.41 245.031 405.673 244.998 404.863H247.867C247.915 405.43 248.183 405.908 248.669 406.297C249.171 406.67 249.795 406.856 250.541 406.856C251.319 406.856 251.918 406.71 252.34 406.418C252.777 406.111 252.996 405.722 252.996 405.252C252.996 404.749 252.753 404.377 252.267 404.133C251.797 403.89 251.043 403.623 250.006 403.331C249.001 403.056 248.183 402.788 247.551 402.529C246.919 402.27 246.368 401.873 245.898 401.338C245.444 400.803 245.217 400.098 245.217 399.223C245.217 398.51 245.428 397.862 245.849 397.279C246.271 396.679 246.87 396.209 247.648 395.869C248.442 395.528 249.35 395.358 250.371 395.358C251.894 395.358 253.117 395.747 254.041 396.525C254.981 397.287 255.483 398.332 255.548 399.661H252.777C252.728 399.061 252.485 398.583 252.048 398.227C251.61 397.87 251.019 397.692 250.273 397.692C249.544 397.692 248.985 397.829 248.596 398.105C248.207 398.38 248.013 398.745 248.013 399.199C248.013 399.555 248.142 399.855 248.402 400.098C248.661 400.341 248.977 400.536 249.35 400.682C249.722 400.811 250.273 400.981 251.003 401.192C251.975 401.451 252.769 401.719 253.385 401.994C254.017 402.254 254.56 402.643 255.013 403.161C255.467 403.68 255.702 404.368 255.718 405.227C255.718 405.989 255.508 406.67 255.086 407.269C254.665 407.869 254.065 408.339 253.288 408.679C252.526 409.019 251.627 409.19 250.589 409.19ZM261.946 397.838V405.252C261.946 405.754 262.059 406.119 262.286 406.345C262.529 406.556 262.934 406.662 263.501 406.662H265.203V408.971H263.015C261.767 408.971 260.811 408.679 260.147 408.096C259.482 407.512 259.15 406.564 259.15 405.252V397.838H257.57V395.577H259.15V392.247H261.946V395.577H265.203V397.838H261.946ZM272.619 409.19C271.565 409.19 270.617 409.003 269.775 408.63C268.948 408.242 268.292 407.723 267.806 407.075C267.32 406.41 267.06 405.673 267.028 404.863H269.896C269.945 405.43 270.212 405.908 270.698 406.297C271.201 406.67 271.825 406.856 272.57 406.856C273.348 406.856 273.948 406.71 274.369 406.418C274.807 406.111 275.025 405.722 275.025 405.252C275.025 404.749 274.782 404.377 274.296 404.133C273.826 403.89 273.073 403.623 272.035 403.331C271.031 403.056 270.212 402.788 269.58 402.529C268.948 402.27 268.397 401.873 267.927 401.338C267.474 400.803 267.247 400.098 267.247 399.223C267.247 398.51 267.457 397.862 267.879 397.279C268.3 396.679 268.9 396.209 269.677 395.869C270.472 395.528 271.379 395.358 272.4 395.358C273.923 395.358 275.147 395.747 276.071 396.525C277.01 397.287 277.513 398.332 277.578 399.661H274.807C274.758 399.061 274.515 398.583 274.077 398.227C273.64 397.87 273.048 397.692 272.303 397.692C271.574 397.692 271.014 397.829 270.625 398.105C270.237 398.38 270.042 398.745 270.042 399.199C270.042 399.555 270.172 399.855 270.431 400.098C270.69 400.341 271.006 400.536 271.379 400.682C271.752 400.811 272.303 400.981 273.032 401.192C274.004 401.451 274.798 401.719 275.414 401.994C276.046 402.254 276.589 402.643 277.043 403.161C277.497 403.68 277.732 404.368 277.748 405.227C277.748 405.989 277.537 406.67 277.116 407.269C276.694 407.869 276.095 408.339 275.317 408.679C274.555 409.019 273.656 409.19 272.619 409.19ZM290.29 397.838V405.252C290.29 405.754 290.403 406.119 290.63 406.345C290.873 406.556 291.278 406.662 291.845 406.662H293.547V408.971H291.359C290.111 408.971 289.155 408.679 288.491 408.096C287.826 407.512 287.494 406.564 287.494 405.252V397.838H285.914V395.577H287.494V392.247H290.29V395.577H293.547V397.838H290.29ZM301.911 409.19C300.647 409.19 299.504 408.906 298.483 408.339C297.462 407.755 296.66 406.945 296.077 405.908C295.493 404.855 295.202 403.639 295.202 402.262C295.202 400.9 295.501 399.693 296.101 398.64C296.701 397.586 297.519 396.776 298.556 396.209C299.593 395.642 300.752 395.358 302.032 395.358C303.312 395.358 304.471 395.642 305.508 396.209C306.545 396.776 307.364 397.586 307.963 398.64C308.563 399.693 308.863 400.9 308.863 402.262C308.863 403.623 308.555 404.83 307.939 405.884C307.323 406.937 306.481 407.755 305.411 408.339C304.358 408.906 303.191 409.19 301.911 409.19ZM301.911 406.783C302.624 406.783 303.288 406.613 303.904 406.273C304.536 405.932 305.046 405.422 305.435 404.741C305.824 404.061 306.019 403.234 306.019 402.262C306.019 401.289 305.832 400.471 305.46 399.807C305.087 399.126 304.593 398.615 303.977 398.275C303.361 397.935 302.697 397.765 301.984 397.765C301.271 397.765 300.606 397.935 299.99 398.275C299.391 398.615 298.913 399.126 298.556 399.807C298.2 400.471 298.021 401.289 298.021 402.262C298.021 403.704 298.386 404.822 299.115 405.616C299.861 406.394 300.792 406.783 301.911 406.783ZM320.688 397.522C321.093 396.841 321.628 396.314 322.292 395.942C322.973 395.553 323.775 395.358 324.699 395.358V398.227H323.994C322.908 398.227 322.082 398.502 321.514 399.053C320.963 399.604 320.688 400.56 320.688 401.921V408.971H317.917V395.577H320.688V397.522ZM339.522 401.946C339.522 402.448 339.489 402.902 339.424 403.307H329.191C329.272 404.377 329.669 405.235 330.382 405.884C331.095 406.532 331.97 406.856 333.007 406.856C334.498 406.856 335.551 406.232 336.167 404.984H339.157C338.752 406.216 338.015 407.229 336.945 408.023C335.892 408.801 334.579 409.19 333.007 409.19C331.727 409.19 330.576 408.906 329.555 408.339C328.551 407.755 327.756 406.945 327.173 405.908C326.606 404.855 326.322 403.639 326.322 402.262C326.322 400.884 326.598 399.677 327.149 398.64C327.716 397.586 328.502 396.776 329.507 396.209C330.528 395.642 331.694 395.358 333.007 395.358C334.271 395.358 335.397 395.634 336.386 396.185C337.374 396.736 338.144 397.513 338.695 398.518C339.246 399.507 339.522 400.649 339.522 401.946ZM336.629 401.071C336.613 400.05 336.248 399.231 335.535 398.615C334.822 398 333.939 397.692 332.885 397.692C331.929 397.692 331.111 398 330.43 398.615C329.75 399.215 329.345 400.033 329.215 401.071H336.629ZM345.02 397.546C345.49 396.93 346.13 396.412 346.94 395.99C347.75 395.569 348.666 395.358 349.687 395.358C350.854 395.358 351.915 395.65 352.871 396.233C353.844 396.8 354.605 397.603 355.156 398.64C355.707 399.677 355.983 400.868 355.983 402.213C355.983 403.558 355.707 404.765 355.156 405.835C354.605 406.888 353.844 407.715 352.871 408.314C351.915 408.898 350.854 409.19 349.687 409.19C348.666 409.19 347.759 408.987 346.965 408.582C346.17 408.161 345.522 407.642 345.02 407.026V415.34H342.249V395.577H345.02V397.546ZM353.163 402.213C353.163 401.289 352.969 400.495 352.58 399.831C352.207 399.15 351.705 398.64 351.073 398.299C350.457 397.943 349.792 397.765 349.079 397.765C348.383 397.765 347.718 397.943 347.086 398.299C346.47 398.656 345.968 399.175 345.579 399.855C345.206 400.536 345.02 401.338 345.02 402.262C345.02 403.185 345.206 403.996 345.579 404.693C345.968 405.373 346.47 405.892 347.086 406.248C347.718 406.605 348.383 406.783 349.079 406.783C349.792 406.783 350.457 406.605 351.073 406.248C351.705 405.876 352.207 405.341 352.58 404.644C352.969 403.947 353.163 403.137 353.163 402.213ZM361.494 390.983V408.971H358.723V390.983H361.494ZM377.19 395.577L368.973 415.267H366.105L368.828 408.752L363.553 395.577H366.64L370.408 405.786L374.321 395.577H377.19Z" fill="black"/>
</g>
<defs>
<clipPath id="clip0_29_1136">
<rect width="384" height="384" fill="white"/>
</clipPath>
</defs>
</svg>
