<svg width="20" height="20" viewBox="0 0 20 20" fill="none" xmlns="http://www.w3.org/2000/svg">
<path fill-rule="evenodd" clip-rule="evenodd" d="M8.24596 9.35817C7.88138 9.35817 7.5931 9.6415 7.5931 9.99984C7.5931 10.3498 7.88138 10.6415 8.24596 10.6415H13.3332V14.6248C13.3332 16.6665 11.6459 18.3332 9.56016 18.3332H5.43104C3.35376 18.3332 1.6665 16.6748 1.6665 14.6332V5.37484C1.6665 3.32484 3.36224 1.6665 5.43952 1.6665H9.57712C11.6459 1.6665 13.3332 3.32484 13.3332 5.3665V9.35817H8.24596ZM16.3583 7.11667L18.7917 9.54167C18.9167 9.66667 18.9833 9.825 18.9833 10C18.9833 10.1667 18.9167 10.3333 18.7917 10.45L16.3583 12.875C16.2333 13 16.0667 13.0667 15.9083 13.0667C15.7417 13.0667 15.575 13 15.45 12.875C15.2 12.625 15.2 12.2167 15.45 11.9667L16.7833 10.6417H13.3333V9.35834H16.7833L15.45 8.03334C15.2 7.78334 15.2 7.375 15.45 7.125C15.7 6.86667 16.1083 6.86667 16.3583 7.11667Z" fill="#7C8DB5" fill-opacity="0.72"/>
</svg>
