<svg width="20" height="19" viewBox="0 0 20 19" fill="none" xmlns="http://www.w3.org/2000/svg">
<path fill-rule="evenodd" clip-rule="evenodd" d="M17.0016 10.317C17.2997 10.4753 17.5296 10.7253 17.6915 10.9753C18.0066 11.492 17.981 12.1253 17.6744 12.6837L17.0783 13.6837C16.7632 14.217 16.1755 14.5503 15.5709 14.5503C15.2728 14.5503 14.9407 14.467 14.6682 14.3003C14.4467 14.1587 14.1912 14.1087 13.9187 14.1087C13.0756 14.1087 12.3688 14.8003 12.3432 15.6253C12.3432 16.5837 11.5597 17.3337 10.5803 17.3337H9.42211C8.43422 17.3337 7.65072 16.5837 7.65072 15.6253C7.63369 14.8003 6.92683 14.1087 6.08372 14.1087C5.80268 14.1087 5.54719 14.1587 5.33428 14.3003C5.06176 14.467 4.72111 14.5503 4.43155 14.5503C3.81838 14.5503 3.23075 14.217 2.91565 13.6837L2.32802 12.6837C2.01292 12.142 1.99589 11.492 2.31099 10.9753C2.44725 10.7253 2.70274 10.4753 2.9923 10.317C3.23075 10.2003 3.38405 10.0087 3.52882 9.78366C3.95464 9.06699 3.69915 8.12533 2.97526 7.70033C2.13215 7.22533 1.85963 6.16699 2.34506 5.34199L2.91565 4.35866C3.4096 3.53366 4.46562 3.24199 5.31725 3.72533C6.05817 4.12533 7.02051 3.85866 7.45484 3.15033C7.5911 2.91699 7.66775 2.66699 7.65072 2.41699C7.63369 2.09199 7.72737 1.78366 7.88918 1.53366C8.20428 1.01699 8.77487 0.683659 9.39656 0.666992H10.5974C11.2276 0.666992 11.7982 1.01699 12.1133 1.53366C12.2666 1.78366 12.3688 2.09199 12.3432 2.41699C12.3262 2.66699 12.4028 2.91699 12.5391 3.15033C12.9734 3.85866 13.9358 4.12533 14.6852 3.72533C15.5283 3.24199 16.5928 3.53366 17.0783 4.35866L17.6489 5.34199C18.1428 6.16699 17.8703 7.22533 17.0187 7.70033C16.2948 8.12533 16.0393 9.06699 16.4736 9.78366C16.6099 10.0087 16.7632 10.2003 17.0016 10.317ZM7.59111 9.00866C7.59111 10.317 8.67268 11.3587 10.0097 11.3587C11.3468 11.3587 12.4028 10.317 12.4028 9.00866C12.4028 7.70033 11.3468 6.65033 10.0097 6.65033C8.67268 6.65033 7.59111 7.70033 7.59111 9.00866Z" fill="#7C8DB5" fill-opacity="0.72"/>
</svg>
