<svg width="20" height="19" viewBox="0 0 20 19" fill="none" xmlns="http://www.w3.org/2000/svg">
<path fill-rule="evenodd" clip-rule="evenodd" d="M16.9992 6.62147L17.5994 7.22147C18.0745 7.68814 18.333 8.32147 18.333 8.98814C18.3413 9.65481 18.0829 10.289 17.616 10.7631C17.6105 10.7693 17.6049 10.7746 17.5994 10.78C17.5966 10.7827 17.5938 10.7854 17.591 10.7881L16.9992 11.3798C16.7657 11.6131 16.6324 11.9298 16.6324 12.264V13.1215C16.6324 14.5048 15.5069 15.6306 14.1231 15.6306H13.2645C12.931 15.6306 12.6142 15.7631 12.3808 15.9965L11.7806 16.5965C11.2888 17.089 10.6469 17.3298 10.005 17.3298C9.36306 17.3298 8.72116 17.089 8.22931 16.6056L7.62076 15.9965C7.38734 15.7631 7.07056 15.6306 6.7371 15.6306H5.87846C4.49463 15.6306 3.36922 14.5048 3.36922 13.1215V12.264C3.36922 11.9298 3.23584 11.6131 3.00242 11.3715L2.4022 10.7798C1.42685 9.80564 1.41851 8.21314 2.39386 7.23064L3.00242 6.62147C3.23584 6.38814 3.36922 6.07147 3.36922 5.72981V4.87981C3.36922 3.49647 4.49463 2.37231 5.87846 2.37231H6.7371C7.07056 2.37231 7.38734 2.23814 7.62076 2.00481L8.22098 1.40481C9.19633 0.422307 10.7886 0.422307 11.7723 1.39731L12.3808 2.00481C12.6142 2.23814 12.931 2.37231 13.2645 2.37231H14.1231C15.5069 2.37231 16.6324 3.49647 16.6324 4.87981V5.73897C16.6324 6.07147 16.7657 6.38814 16.9992 6.62147ZM7.85418 11.8715C8.05425 11.8715 8.23765 11.7965 8.37103 11.6548L12.6559 7.37231C12.9394 7.08897 12.9394 6.62147 12.6559 6.33814C12.3725 6.05564 11.914 6.05564 11.6305 6.33814L7.34566 10.6215C7.06222 10.9048 7.06222 11.3715 7.34566 11.6548C7.47904 11.7965 7.66244 11.8715 7.85418 11.8715ZM11.4138 11.1381C11.4138 11.5465 11.7389 11.8715 12.1474 11.8715C12.5475 11.8715 12.8727 11.5465 12.8727 11.1381C12.8727 10.739 12.5475 10.4131 12.1474 10.4131C11.7389 10.4131 11.4138 10.739 11.4138 11.1381ZM7.86251 6.12981C8.26266 6.12981 8.58778 6.45481 8.58778 6.85481C8.58778 7.26397 8.26266 7.58814 7.86251 7.58814C7.46237 7.58814 7.12891 7.26397 7.12891 6.85481C7.12891 6.45481 7.46237 6.12981 7.86251 6.12981Z" fill="#7C8DB5" fill-opacity="0.72"/>
</svg>
