<svg width="45" height="45" viewBox="0 0 45 45" fill="none" xmlns="http://www.w3.org/2000/svg">
<path d="M3.75 16.875V12.1875C3.75 7.51875 7.51875 3.75 12.1875 3.75H16.875" stroke="#060047" stroke-width="2.81" stroke-linecap="round" stroke-linejoin="round"/>
<path d="M28.125 3.75H32.8125C37.4813 3.75 41.25 7.51875 41.25 12.1875V16.875" stroke="#060047" stroke-width="2.81" stroke-linecap="round" stroke-linejoin="round"/>
<path d="M41.25 30V32.8125C41.25 37.4813 37.4813 41.25 32.8125 41.25H30" stroke="#060047" stroke-width="2.81" stroke-linecap="round" stroke-linejoin="round"/>
<path d="M16.875 41.25H12.1875C7.51875 41.25 3.75 37.4813 3.75 32.8125V28.125" stroke="#060047" stroke-width="2.81" stroke-linecap="round" stroke-linejoin="round"/>
<path d="M15.9375 20.625C18.5263 20.625 20.625 18.5263 20.625 15.9375C20.625 13.3487 18.5263 11.25 15.9375 11.25C13.3487 11.25 11.25 13.3487 11.25 15.9375C11.25 18.5263 13.3487 20.625 15.9375 20.625Z" stroke="#060047" stroke-width="2.81" stroke-linecap="round" stroke-linejoin="round"/>
<path d="M14.0625 33.75C15.6158 33.75 16.875 32.4908 16.875 30.9375C16.875 29.3842 15.6158 28.125 14.0625 28.125C12.5092 28.125 11.25 29.3842 11.25 30.9375C11.25 32.4908 12.5092 33.75 14.0625 33.75Z" stroke="#060047" stroke-width="2.81" stroke-linecap="round" stroke-linejoin="round"/>
<path d="M30.9375 16.875C32.4908 16.875 33.75 15.6158 33.75 14.0625C33.75 12.5092 32.4908 11.25 30.9375 11.25C29.3842 11.25 28.125 12.5092 28.125 14.0625C28.125 15.6158 29.3842 16.875 30.9375 16.875Z" stroke="#060047" stroke-width="2.81" stroke-linecap="round" stroke-linejoin="round"/>
<path d="M29.0625 33.75C31.6513 33.75 33.75 31.6513 33.75 29.0625C33.75 26.4737 31.6513 24.375 29.0625 24.375C26.4737 24.375 24.375 26.4737 24.375 29.0625C24.375 31.6513 26.4737 33.75 29.0625 33.75Z" stroke="#060047" stroke-width="2.81" stroke-linecap="round" stroke-linejoin="round"/>
</svg>
