<svg width="45" height="45" viewBox="0 0 45 45" fill="none" xmlns="http://www.w3.org/2000/svg">
<path d="M22.5 16.875V3.75L18.75 7.5" stroke="#060047" stroke-width="2.8125" stroke-linecap="round" stroke-linejoin="round"/>
<path d="M22.5 3.75L26.25 7.5" stroke="#060047" stroke-width="2.8125" stroke-linecap="round" stroke-linejoin="round"/>
<path d="M3.71289 24.375H11.9816C12.6941 24.375 13.3316 24.7688 13.6504 25.4063L15.8441 29.7938C16.4816 31.0688 17.7754 31.875 19.2004 31.875H25.8191C27.2441 31.875 28.5379 31.0688 29.1754 29.7938L31.3691 25.4063C31.6879 24.7688 32.3441 24.375 33.0379 24.375H41.2129" stroke="#060047" stroke-width="2.8125" stroke-linecap="round" stroke-linejoin="round"/>
<path d="M13.125 9.61865C6.4875 10.5937 3.75 14.4937 3.75 22.4999V28.1249C3.75 37.4999 7.5 41.2499 16.875 41.2499H28.125C37.5 41.2499 41.25 37.4999 41.25 28.1249V22.4999C41.25 14.4937 38.5125 10.5937 31.875 9.61865" stroke="#060047" stroke-width="2.8125" stroke-linecap="round" stroke-linejoin="round"/>
</svg>
