<svg width="59" height="59" viewBox="0 0 59 59" fill="none" xmlns="http://www.w3.org/2000/svg">
<path d="M23.9017 44.8814C21.7213 45.6641 19.2639 45.7274 16.9206 44.8745C11.5996 42.9378 8.81396 36.9955 10.7571 31.6568L13.9635 22.8472C15.9002 17.5262 21.8602 14.747 27.1812 16.6837C32.5022 18.6204 35.2878 24.5628 33.3447 29.9014L31.7414 34.3062" stroke="#060047" stroke-width="2.81" stroke-linecap="round" stroke-linejoin="round"/>
<path d="M35.0984 14.1183C37.2789 13.3356 39.7362 13.2722 42.0796 14.1251C47.4006 16.0618 50.1862 22.0042 48.2431 27.3428L45.0367 36.1524C43.1 41.4734 37.14 44.2526 31.819 42.3159C26.498 40.3792 23.7124 34.4369 25.6555 29.0982L27.2587 24.6934" stroke="#060047" stroke-width="2.81" stroke-linecap="round" stroke-linejoin="round"/>
</svg>
