<svg width="15" height="25" viewBox="0 0 15 25" fill="none" xmlns="http://www.w3.org/2000/svg">
<path d="M12.1907 1.56787H3.4178C2.3411 1.56787 1.46826 2.44071 1.46826 3.51741V22.038C1.46826 23.1147 2.3411 23.9875 3.4178 23.9875H12.1907C13.2674 23.9875 14.1402 23.1147 14.1402 22.038V3.51741C14.1402 2.44071 13.2674 1.56787 12.1907 1.56787Z" stroke="#A0A3BD" stroke-width="1.37967" stroke-linecap="round" stroke-linejoin="round"/>
<path d="M10.9976 1.56787V2.84513C10.9976 3.18388 10.863 3.50875 10.6235 3.74828C10.384 3.98782 10.0591 4.12238 9.72035 4.12238H5.88858C5.54983 4.12238 5.22496 3.98782 4.98543 3.74828C4.7459 3.50875 4.61133 3.18388 4.61133 2.84513V1.56787" stroke="#A0A3BD" stroke-width="1.37967" stroke-linecap="round" stroke-linejoin="round"/>
</svg>
