<svg width="15" height="27" viewBox="0 0 15 27" fill="none" xmlns="http://www.w3.org/2000/svg">
<path d="M13.6363 25.987V5.59867C13.6362 5.38018 13.5675 5.16724 13.4397 4.98997C13.312 4.8127 13.1318 4.68006 12.9246 4.61082L2.51881 1.14224C2.36235 1.0898 2.19565 1.07538 2.0325 1.10017C1.86936 1.12496 1.71446 1.18824 1.58063 1.28478C1.44681 1.38132 1.33789 1.50835 1.2629 1.65534C1.18792 1.80234 1.14902 1.96508 1.14942 2.13009V25.987" stroke="#A0A3BD" stroke-width="1.37967" stroke-linecap="round" stroke-linejoin="round"/>
<path d="M9.47266 19.4165V20.4571" stroke="#A0A3BD" stroke-width="1.37967" stroke-linecap="round" stroke-linejoin="round"/>
<path d="M9.47266 14.2139V15.2544" stroke="#A0A3BD" stroke-width="1.37967" stroke-linecap="round" stroke-linejoin="round"/>
<path d="M9.47266 9.01123V10.0518" stroke="#A0A3BD" stroke-width="1.37967" stroke-linecap="round" stroke-linejoin="round"/>
<path d="M5.3125 19.4165V20.4571" stroke="#A0A3BD" stroke-width="1.37967" stroke-linecap="round" stroke-linejoin="round"/>
<path d="M5.3125 14.2139V15.2544" stroke="#A0A3BD" stroke-width="1.37967" stroke-linecap="round" stroke-linejoin="round"/>
<path d="M5.3125 9.01123V10.0518" stroke="#A0A3BD" stroke-width="1.37967" stroke-linecap="round" stroke-linejoin="round"/>
</svg>
