<svg width="34" height="35" viewBox="0 0 34 35" fill="none" xmlns="http://www.w3.org/2000/svg">
<circle cx="17.3118" cy="17.5662" r="7.29811" fill="white"/>
<path fill-rule="evenodd" clip-rule="evenodd" d="M31.643 20.4822C32.2572 20.8084 32.731 21.3236 33.0645 21.8387C33.7138 22.9034 33.6611 24.2085 33.0294 25.359L31.801 27.4196C31.1516 28.5186 29.9408 29.2055 28.6948 29.2055C28.0806 29.2055 27.3962 29.0338 26.8346 28.6903C26.3783 28.3984 25.8519 28.2954 25.2903 28.2954C23.553 28.2954 22.0964 29.7206 22.0438 31.4206C22.0438 33.3954 20.4293 34.9409 18.4111 34.9409H16.0245C13.9888 34.9409 12.3743 33.3954 12.3743 31.4206C12.3392 29.7206 10.8827 28.2954 9.14532 28.2954C8.56621 28.2954 8.03974 28.3984 7.60102 28.6903C7.03945 29.0338 6.3375 29.2055 5.74083 29.2055C4.47731 29.2055 3.26644 28.5186 2.61713 27.4196L1.40625 25.359C0.756944 24.2428 0.721846 22.9034 1.37116 21.8387C1.65194 21.3236 2.17841 20.8084 2.77507 20.4822C3.26644 20.2418 3.58232 19.8468 3.88065 19.3832C4.75809 17.9064 4.23163 15.966 2.73997 15.0902C1.00263 14.1114 0.441064 11.9306 1.44135 10.2306L2.61713 8.2043C3.63496 6.50428 5.81103 5.90327 7.56592 6.89924C9.09267 7.72349 11.0757 7.17399 11.9707 5.71438C12.2515 5.23357 12.4094 4.71841 12.3743 4.20326C12.3392 3.53355 12.5323 2.8982 12.8657 2.38304C13.515 1.31839 14.6908 0.631512 15.9718 0.597168H18.4462C19.7449 0.597168 20.9206 1.31839 21.5699 2.38304C21.8858 2.8982 22.0964 3.53355 22.0438 4.20326C22.0087 4.71841 22.1666 5.23357 22.4474 5.71438C23.3424 7.17399 25.3254 7.72349 26.8697 6.89924C28.6071 5.90327 30.8007 6.50428 31.801 8.2043L32.9767 10.2306C33.9946 11.9306 33.433 14.1114 31.6781 15.0902C30.1865 15.966 29.66 17.9064 30.555 19.3832C30.8358 19.8468 31.1516 20.2418 31.643 20.4822ZM12.2521 17.7857C12.2521 20.4817 14.4809 22.6281 17.236 22.6281C19.9912 22.6281 22.1673 20.4817 22.1673 17.7857C22.1673 15.0897 19.9912 12.926 17.236 12.926C14.4809 12.926 12.2521 15.0897 12.2521 17.7857Z" fill="#098F8A"/>
</svg>
