<svg width="18" height="20" viewBox="0 0 18 20" fill="none" xmlns="http://www.w3.org/2000/svg">
<path fill-rule="evenodd" clip-rule="evenodd" d="M11.6065 0.0119441C11.5634 0.00425618 11.5191 0.000244141 11.4738 0.000244141C11.4285 0.000244141 11.3842 0.00425618 11.3411 0.0119441H5.08351C2.59622 0.0119441 0.499512 2.02977 0.499512 4.49094V15.2039C0.499512 17.8045 2.50411 19.8649 5.08351 19.8649H13.0725C15.5258 19.8649 17.5515 17.703 17.5515 15.2039V6.03794C17.5515 5.84433 17.4766 5.65821 17.3425 5.51854L12.2775 0.242543C12.1361 0.095222 11.9407 0.0119441 11.7365 0.0119441H11.6065ZM10.7238 1.51114L5.08351 1.51194C3.41205 1.51194 1.99951 2.87134 1.99951 4.49094V15.2039C1.99951 16.9852 3.3419 18.3649 5.08351 18.3649H13.0725C14.6748 18.3649 16.0515 16.8956 16.0515 15.2039L16.0509 6.98333L15.1754 6.98631C14.8417 6.98591 14.4622 6.9852 14.0402 6.98424C12.2707 6.9805 10.8265 5.59353 10.7291 3.84763L10.7238 3.65924V1.51114ZM15.23 5.48408L14.0435 5.48425C13.038 5.48212 12.2238 4.6657 12.2238 3.65924V2.35269L15.23 5.48408ZM11.2838 12.8078C11.698 12.8078 12.0338 13.1436 12.0338 13.5578C12.0338 13.9375 11.7517 14.2513 11.3856 14.301L11.2838 14.3078H5.88681C5.4726 14.3078 5.13681 13.9721 5.13681 13.5578C5.13681 13.1781 5.41897 12.8644 5.78504 12.8147L5.88681 12.8078H11.2838ZM9.99231 8.60564C9.99231 8.19143 9.65653 7.85564 9.24231 7.85564H5.88631L5.78454 7.86249C5.41847 7.91215 5.13631 8.22595 5.13631 8.60564C5.13631 9.01986 5.4721 9.35564 5.88631 9.35564H9.24231L9.34408 9.3488C9.71016 9.29914 9.99231 8.98534 9.99231 8.60564Z" fill="#2E2E5D"/>
</svg>
