<svg width="24" height="24" viewBox="0 0 24 24" fill="none" xmlns="http://www.w3.org/2000/svg">
<path fill-rule="evenodd" clip-rule="evenodd" d="M16.3345 2.00024H7.66549C4.26791 2.00024 2.00049 4.43284 2.00049 7.91624V16.0842C2.00049 19.5713 4.26119 22.0002 7.66549 22.0002H16.3335C19.7381 22.0002 22.0005 19.5709 22.0005 16.0842V7.91624C22.0005 4.42975 19.7383 2.00024 16.3345 2.00024ZM7.66549 3.50024H16.3345C18.885 3.50024 20.5005 5.23521 20.5005 7.91624V16.0842C20.5005 18.7654 18.8849 20.5002 16.3335 20.5002H7.66549C5.11463 20.5002 3.50049 18.766 3.50049 16.0842V7.91624C3.50049 5.23862 5.12083 3.50024 7.66549 3.50024ZM12.7432 7.53197C12.6936 7.1659 12.3798 6.88374 12.0001 6.88374C11.5859 6.88374 11.2501 7.21953 11.2501 7.63374V11.9947L11.2584 12.1065C11.2916 12.3265 11.4214 12.5228 11.6158 12.6388L15.0068 14.6618L15.0977 14.7081C15.4376 14.853 15.8406 14.7281 16.0352 14.402L16.0814 14.3111C16.2263 13.9713 16.1014 13.5682 15.7753 13.3737L12.7498 11.568L12.7501 7.63374L12.7432 7.53197Z" fill="#2E2E5D"/>
</svg>
