<svg width="32" height="27" viewBox="0 0 32 27" fill="none" xmlns="http://www.w3.org/2000/svg">
<rect x="1.73486" y="1.51562" width="28.2723" height="23.3914" fill="white"/>
<path d="M0.547852 22.9772C0.547852 24.0086 0.957564 24.9977 1.68686 25.727C2.41615 26.4563 3.40528 26.866 4.43666 26.866H27.7695C28.8009 26.866 29.79 26.4563 30.5193 25.727C31.2486 24.9977 31.6583 24.0086 31.6583 22.9772V4.18129C31.6583 3.14991 31.2486 2.16078 30.5193 1.43149C29.79 0.702193 28.8009 0.29248 27.7695 0.29248H4.43666C3.40528 0.29248 2.41615 0.702193 1.68686 1.43149C0.957564 2.16078 0.547852 3.14991 0.547852 4.18129L0.547852 22.9772ZM19.3438 3.53315C19.3377 3.76338 19.2687 3.98755 19.1441 4.18129C19.036 4.37748 18.8772 4.54107 18.6843 4.655C18.4914 4.76893 18.2715 4.82903 18.0475 4.82903C17.8235 4.82903 17.6035 4.76893 17.4107 4.655C17.2178 4.54107 17.059 4.37748 16.9508 4.18129C16.8263 3.98755 16.7573 3.76338 16.7512 3.53315C16.7571 3.30289 16.8261 3.07867 16.9508 2.88502C17.059 2.68883 17.2178 2.52524 17.4107 2.41131C17.6035 2.29738 17.8235 2.23728 18.0475 2.23728C18.2715 2.23728 18.4914 2.29738 18.6843 2.41131C18.8772 2.52524 19.036 2.68883 19.1441 2.88502C19.2688 3.07867 19.3379 3.30289 19.3438 3.53315ZM23.8807 3.53315C23.8746 3.76338 23.8056 3.98755 23.6811 4.18129C23.5729 4.37748 23.4141 4.54107 23.2213 4.655C23.0284 4.76893 22.8085 4.82903 22.5844 4.82903C22.3604 4.82903 22.1405 4.76893 21.9476 4.655C21.7547 4.54107 21.5959 4.37748 21.4878 4.18129C21.3633 3.98755 21.2942 3.76338 21.2882 3.53315C21.294 3.30289 21.3631 3.07867 21.4878 2.88502C21.5959 2.68883 21.7547 2.52524 21.9476 2.41131C22.1405 2.29738 22.3604 2.23728 22.5844 2.23728C22.8085 2.23728 23.0284 2.29738 23.2213 2.41131C23.4141 2.52524 23.5729 2.68883 23.6811 2.88502C23.8058 3.07867 23.8748 3.30289 23.8807 3.53315ZM28.4176 3.53315C28.4116 3.76338 28.3425 3.98755 28.218 4.18129C28.1099 4.37748 27.9511 4.54107 27.7582 4.655C27.5653 4.76893 27.3454 4.82903 27.1214 4.82903C26.8974 4.82903 26.6774 4.76893 26.4845 4.655C26.2917 4.54107 26.1329 4.37748 26.0247 4.18129C25.9002 3.98755 25.8312 3.76338 25.8251 3.53315C25.831 3.30289 25.9 3.07867 26.0247 2.88502C26.1346 2.69026 26.2938 2.52785 26.4862 2.41408C26.6787 2.30031 26.8978 2.2392 27.1214 2.23688C27.3704 2.23801 27.6139 2.31087 27.8226 2.44673C28.0313 2.58259 28.1965 2.77571 28.2984 3.00298C28.3756 3.16913 28.4163 3.34993 28.4176 3.53315ZM3.14039 7.0966C3.14039 7.01065 3.17453 6.92822 3.23531 6.86745C3.29608 6.80667 3.37851 6.77253 3.46446 6.77253H28.7417C28.8277 6.77253 28.9101 6.80667 28.9709 6.86745C29.0316 6.92822 29.0658 7.01065 29.0658 7.0966V22.9759C29.0658 23.3197 28.9292 23.6494 28.6861 23.8925C28.443 24.1356 28.1133 24.2722 27.7695 24.2722H4.43666C4.09287 24.2722 3.76316 24.1356 3.52006 23.8925C3.27696 23.6494 3.14039 23.3197 3.14039 22.9759V7.0966Z" fill="#098F8A"/>
<path d="M9.35267 19.3569C9.59576 19.5999 9.92541 19.7364 10.2691 19.7364C10.6129 19.7364 10.9425 19.5999 11.1856 19.3569L14.4263 16.1162C14.6693 15.8731 14.8058 15.5434 14.8058 15.1997C14.8058 14.856 14.6693 14.5263 14.4263 14.2833L11.1856 11.0426C10.9411 10.8065 10.6137 10.6758 10.2738 10.6788C9.93392 10.6817 9.6088 10.818 9.36847 11.0584C9.12813 11.2987 8.9918 11.6238 8.98885 11.9637C8.98589 12.3036 9.11655 12.631 9.35267 12.8755L11.4474 14.9703C11.4776 15.0004 11.5016 15.0361 11.5179 15.0755C11.5342 15.1149 11.5427 15.1571 11.5427 15.1997C11.5427 15.2424 11.5342 15.2846 11.5179 15.3239C11.5016 15.3633 11.4776 15.3991 11.4474 15.4292L9.35267 17.5239C9.10966 17.767 8.97314 18.0967 8.97314 18.4404C8.97314 18.7841 9.10966 19.1138 9.35267 19.3569Z" fill="#098F8A"/>
<path d="M17.3993 19.7366H22.5844C22.9282 19.7366 23.2579 19.6 23.501 19.3569C23.7441 19.1138 23.8806 18.7841 23.8806 18.4403C23.8806 18.0965 23.7441 17.7668 23.501 17.5237C23.2579 17.2806 22.9282 17.144 22.5844 17.144H17.3993C17.0555 17.144 16.7258 17.2806 16.4827 17.5237C16.2396 17.7668 16.103 18.0965 16.103 18.4403C16.103 18.7841 16.2396 19.1138 16.4827 19.3569C16.7258 19.6 17.0555 19.7366 17.3993 19.7366Z" fill="#098F8A"/>
</svg>
