<svg width="32" height="27" viewBox="0 0 32 27" fill="none" xmlns="http://www.w3.org/2000/svg">
<rect x="1.43066" y="1.5918" width="28.2723" height="23.3914" fill="white"/>
<rect x="5.72217" y="8.61475" width="19.6888" height="4.70175" rx="0.564918" fill="#098F8A"/>
<rect x="5.72217" y="15.6177" width="9.00233" height="6.07843" rx="0.564918" fill="#098F8A"/>
<rect x="16.4087" y="15.6177" width="9.00233" height="1.91691" rx="0.564918" fill="#098F8A"/>
<rect x="16.4087" y="19.7798" width="9.00233" height="1.91691" rx="0.564918" fill="#098F8A"/>
<path d="M0.244141 23.0534C0.244141 24.0847 0.653853 25.0739 1.38315 25.8032C2.11244 26.5325 3.10157 26.9422 4.13295 26.9422H27.4658C28.4972 26.9422 29.4863 26.5325 30.2156 25.8032C30.9449 25.0739 31.3546 24.0847 31.3546 23.0534V4.25746C31.3546 3.22608 30.9449 2.23695 30.2156 1.50766C29.4863 0.778365 28.4972 0.368652 27.4658 0.368652H4.13295C3.10157 0.368652 2.11244 0.778365 1.38315 1.50766C0.653853 2.23695 0.244141 3.22608 0.244141 4.25746L0.244141 23.0534ZM19.04 3.60933C19.034 3.83955 18.9649 4.06372 18.8404 4.25746C18.7323 4.45365 18.5735 4.61724 18.3806 4.73117C18.1877 4.8451 17.9678 4.9052 17.7438 4.9052C17.5198 4.9052 17.2998 4.8451 17.1069 4.73117C16.9141 4.61724 16.7553 4.45365 16.6471 4.25746C16.5226 4.06372 16.4536 3.83955 16.4475 3.60933C16.4534 3.37906 16.5224 3.15485 16.6471 2.96119C16.7553 2.765 16.9141 2.60141 17.1069 2.48748C17.2998 2.37355 17.5198 2.31345 17.7438 2.31345C17.9678 2.31345 18.1877 2.37355 18.3806 2.48748C18.5735 2.60141 18.7323 2.765 18.8404 2.96119C18.9651 3.15485 19.0342 3.37906 19.04 3.60933ZM23.577 3.60933C23.5709 3.83955 23.5019 4.06372 23.3774 4.25746C23.2692 4.45365 23.1104 4.61724 22.9175 4.73117C22.7247 4.8451 22.5047 4.9052 22.2807 4.9052C22.0567 4.9052 21.8368 4.8451 21.6439 4.73117C21.451 4.61724 21.2922 4.45365 21.1841 4.25746C21.0595 4.06372 20.9905 3.83955 20.9844 3.60933C20.9903 3.37906 21.0594 3.15485 21.1841 2.96119C21.2922 2.765 21.451 2.60141 21.6439 2.48748C21.8368 2.37355 22.0567 2.31345 22.2807 2.31345C22.5047 2.31345 22.7247 2.37355 22.9175 2.48748C23.1104 2.60141 23.2692 2.765 23.3774 2.96119C23.5021 3.15485 23.5711 3.37906 23.577 3.60933ZM28.1139 3.60933C28.1079 3.83955 28.0388 4.06372 27.9143 4.25746C27.8062 4.45365 27.6474 4.61724 27.4545 4.73117C27.2616 4.8451 27.0417 4.9052 26.8177 4.9052C26.5936 4.9052 26.3737 4.8451 26.1808 4.73117C25.9879 4.61724 25.8292 4.45365 25.721 4.25746C25.5965 4.06372 25.5274 3.83955 25.5214 3.60933C25.5272 3.37906 25.5963 3.15485 25.721 2.96119C25.8309 2.76644 25.99 2.60402 26.1825 2.49025C26.375 2.37648 26.5941 2.31537 26.8177 2.31306C27.0667 2.31419 27.3102 2.38704 27.5189 2.5229C27.7276 2.65876 27.8928 2.85188 27.9947 3.07915C28.0719 3.2453 28.1126 3.4261 28.1139 3.60933ZM2.83668 7.17277C2.83668 7.08682 2.87082 7.00439 2.9316 6.94362C2.99237 6.88284 3.0748 6.8487 3.16075 6.8487H28.438C28.5239 6.8487 28.6064 6.88284 28.6671 6.94362C28.7279 7.00439 28.7621 7.08682 28.7621 7.17277V23.0521C28.7621 23.3959 28.6255 23.7256 28.3824 23.9687C28.1393 24.2118 27.8096 24.3483 27.4658 24.3483H4.13295C3.78916 24.3483 3.45945 24.2118 3.21635 23.9687C2.97325 23.7256 2.83668 23.3959 2.83668 23.0521V7.17277Z" fill="#098F8A"/>
</svg>
