<svg width="28" height="23" viewBox="0 0 28 23" fill="none" xmlns="http://www.w3.org/2000/svg">
<path d="M28.0002 10.1933C27.9951 9.30857 27.7176 8.4469 27.2054 7.72553C26.6931 7.00416 25.9711 6.45814 25.1374 6.16177C24.9748 6.10297 24.8004 6.08423 24.6289 6.10715C24.4575 6.13007 24.2941 6.19397 24.1526 6.29344C24.0111 6.39291 23.8957 6.52502 23.8161 6.67857C23.7365 6.83213 23.695 7.00261 23.6953 7.17557L23.7104 15.4065C23.7108 15.5791 23.7527 15.749 23.8326 15.902C23.9125 16.055 24.028 16.1866 24.1694 16.2856C24.3108 16.3845 24.474 16.448 24.6451 16.4707C24.8162 16.4934 24.9902 16.4747 25.1525 16.416C25.9878 16.1155 26.7098 15.5641 27.2196 14.8374C27.7293 14.1107 28.002 13.2442 28.0002 12.3565V10.1933Z" fill="#098F8A"/>
<path d="M22.7879 1.00337C22.7879 0.737263 22.6822 0.482051 22.4941 0.293882C22.3059 0.105712 22.0507 0 21.7846 0C21.5184 0 21.2632 0.105712 21.0751 0.293882C20.8869 0.482051 20.7812 0.737263 20.7812 1.00337V1.77999L2.56592 7.66077C2.46498 7.69344 2.37701 7.75727 2.31463 7.84309C2.25225 7.9289 2.21868 8.03228 2.21875 8.13837V14.1155C2.21874 14.2222 2.2528 14.3262 2.31596 14.4123C2.37911 14.4984 2.46809 14.5621 2.56993 14.5941L3.87432 15.0035C3.97616 15.0355 4.06514 15.0992 4.12829 15.1853C4.19145 15.2713 4.22551 15.3753 4.2255 15.4821V18.0818C4.23212 19.2754 4.71059 20.418 5.55649 21.2601C6.40239 22.1023 7.54706 22.5756 8.74069 22.5769H8.76176C9.95815 22.57 11.103 22.0891 11.9454 21.2395C12.7878 20.39 13.2591 19.2411 13.2559 18.0447V17.9444L20.7812 20.3023V21.0709C20.7812 21.337 20.8869 21.5922 21.0751 21.7804C21.2632 21.9685 21.5184 22.0742 21.7846 22.0742C22.0507 22.0742 22.3059 21.9685 22.4941 21.7804C22.6822 21.5922 22.7879 21.337 22.7879 21.0709V1.00337ZM11.2491 18.0497C11.2507 18.3791 11.1874 18.7056 11.0628 19.0106C10.9382 19.3155 10.7548 19.5929 10.5229 19.827C10.2911 20.061 10.0155 20.2471 9.71175 20.3746C9.40802 20.5022 9.08214 20.5686 8.75273 20.5702H8.74069C8.07818 20.5702 7.44257 20.3081 6.97261 19.8412C6.50264 19.3742 6.23649 18.7403 6.23225 18.0778V16.4252C6.23224 16.3465 6.25079 16.2688 6.28638 16.1985C6.32197 16.1283 6.37361 16.0674 6.43712 16.0208C6.50063 15.9741 6.57422 15.9431 6.65193 15.9303C6.72964 15.9174 6.8093 15.923 6.88444 15.9466L10.8979 17.2049C10.9998 17.2369 11.0888 17.3006 11.1519 17.3867C11.2151 17.4727 11.2491 17.5767 11.2491 17.6835V18.0497Z" fill="#098F8A"/>
<path d="M2.21803 7.67553C2.21803 7.40611 2.10118 7.14772 1.8932 6.95721C1.68522 6.7667 1.40314 6.65967 1.10901 6.65967C0.814885 6.65967 0.532803 6.7667 0.324823 6.95721C0.116842 7.14772 0 7.40611 0 7.67553L0.00554507 14.7866C0.00554507 14.92 0.0342306 15.0521 0.0899637 15.1753C0.145697 15.2986 0.227386 15.4106 0.330368 15.5049C0.433349 15.5992 0.555606 15.6741 0.690157 15.7251C0.824709 15.7762 0.968921 15.8024 1.11456 15.8024H1.10901C1.39859 15.8025 1.67671 15.6989 1.88394 15.5136C2.09117 15.3283 2.21108 15.0761 2.21803 14.811V7.67553Z" fill="white"/>
</svg>
