<svg width="44" height="45" viewBox="0 0 44 45" fill="none" xmlns="http://www.w3.org/2000/svg">
<path d="M13.7536 35.8911H10.2444C4.87095 35.5072 2.4585 31.3767 2.4585 27.703C2.4585 24.0294 4.87098 19.8805 10.153 19.515C10.9024 19.4419 11.5603 20.0267 11.6151 20.7943C11.67 21.5437 11.1035 22.2017 10.3358 22.2565C6.79012 22.5124 5.20003 25.1808 5.20003 27.7213C5.20003 30.2618 6.79012 32.9302 10.3358 33.1861H13.7536C14.503 33.1861 15.1244 33.8075 15.1244 34.5569C15.1244 35.3062 14.503 35.8911 13.7536 35.8911Z" fill="#098F8A"/>
<path d="M30.5859 35.8914C30.5493 35.8914 30.5311 35.8914 30.4945 35.8914C29.7452 35.8914 29.0507 35.27 29.0507 34.5206C29.0507 33.7347 29.6355 33.1498 30.4032 33.1498C32.6512 33.1498 34.6617 32.3639 36.2335 30.9566C39.0847 28.471 39.2675 24.8887 38.4998 22.3665C37.7322 19.8625 35.5938 16.9931 31.8653 16.5361C31.2622 16.463 30.7869 16.0061 30.6773 15.403C29.9462 11.0165 27.5885 7.98254 24.0063 6.88592C20.3143 5.73448 16.0009 6.86765 13.3142 9.68229C10.7006 12.4055 10.0975 16.2254 11.6145 20.4291C11.8703 21.1419 11.5049 21.9278 10.7921 22.1837C10.0793 22.4396 9.29334 22.074 9.03747 21.3612C7.1915 16.2071 8.03225 11.2724 11.3404 7.79977C14.7216 4.25405 20.1498 2.84671 24.8104 4.27231C29.0872 5.58825 32.1029 9.1157 33.1995 14.0139C36.928 14.8546 39.9254 17.6876 41.1134 21.5988C42.4111 25.8574 41.2414 30.2438 38.0429 33.0219C36.0142 34.8496 33.364 35.8914 30.5859 35.8914Z" fill="#098F8A"/>
<path d="M22.0507 41.2645C18.3771 41.2645 14.941 39.3089 13.0585 36.147C12.8575 35.8363 12.6564 35.4708 12.4919 35.0687C11.8705 33.771 11.5415 32.2906 11.5415 30.7553C11.5415 24.9615 16.2569 20.2461 22.0507 20.2461C27.8445 20.2461 32.56 24.9615 32.56 30.7553C32.56 32.3089 32.231 33.771 31.573 35.1235C31.4268 35.4708 31.2258 35.8363 31.0065 36.1836C29.1605 39.3089 25.7244 41.2645 22.0507 41.2645ZM22.0507 22.9876C17.7739 22.9876 14.283 26.4785 14.283 30.7553C14.283 31.8885 14.5206 32.9485 14.9776 33.9172C15.1238 34.2279 15.2517 34.4838 15.3979 34.7214C16.787 37.0791 19.3274 38.523 22.0324 38.523C24.7374 38.523 27.2779 37.0791 28.6487 34.758C28.8132 34.4838 28.9594 34.2279 29.0691 33.972C29.5626 32.9668 29.8001 31.9068 29.8001 30.7736C29.8184 26.4785 26.3275 22.9876 22.0507 22.9876Z" fill="#098F8A"/>
<path d="M21.0082 33.9363C20.6609 33.9363 20.3137 33.8083 20.0396 33.5342L18.23 31.7247C17.7 31.1947 17.7 30.3174 18.23 29.7874C18.7601 29.2574 19.6374 29.2574 20.1674 29.7874L21.0448 30.6647L23.969 27.9597C24.5356 27.4479 25.3946 27.4845 25.9064 28.0328C26.4181 28.5811 26.3816 29.4584 25.8333 29.9702L21.9403 33.5707C21.6662 33.8083 21.3372 33.9363 21.0082 33.9363Z" fill="#098F8A"/>
</svg>
