<svg width="116" height="116" viewBox="0 0 116 116" fill="none" xmlns="http://www.w3.org/2000/svg">
<g filter="url(#filter0_d_450_935)">
<path fill-rule="evenodd" clip-rule="evenodd" d="M30 43.0162C30 27.5615 42.5676 15 58 15C73.4324 15 86 27.5615 86 43.0162C86 58.4385 73.4324 71 58 71C42.5676 71 30 58.4385 30 43.0162ZM68.2703 45.85C68.5676 45.5528 68.946 45.0936 69.0271 44.9855C69.4595 44.4182 69.6757 43.7159 69.6757 43.0162C69.6757 42.2301 69.4325 41.5007 68.973 40.9064C68.9353 40.8688 68.8616 40.7885 68.7655 40.6839C68.5857 40.4882 68.3277 40.2074 68.0811 39.9609C65.8649 37.5837 60.0811 33.6937 57.0541 32.5051C56.5946 32.3187 55.4325 31.9108 54.8108 31.8837C54.2162 31.8837 53.6487 32.0188 53.1081 32.289C52.4325 32.6671 51.8919 33.2615 51.5946 33.9638C51.4054 34.4501 51.1081 35.9088 51.1081 35.9358C50.8108 37.5297 50.6487 40.123 50.6487 42.9865C50.6487 45.7176 50.8108 48.2002 51.0541 49.821C51.0608 49.8277 51.084 49.9436 51.1201 50.1237C51.2299 50.6712 51.4587 51.8118 51.7027 52.2793C52.2973 53.4139 53.4595 54.1163 54.7027 54.1163H54.8108C55.6217 54.0892 57.3244 53.3869 57.3244 53.3599C60.1892 52.1712 65.8379 48.4703 68.1081 46.0121L68.2703 45.85Z" fill="url(#paint0_linear_450_935)"/>
</g>
<defs>
<filter id="filter0_d_450_935" x="0" y="0" width="116" height="116" filterUnits="userSpaceOnUse" color-interpolation-filters="sRGB">
<feFlood flood-opacity="0" result="BackgroundImageFix"/>
<feColorMatrix in="SourceAlpha" type="matrix" values="0 0 0 0 0 0 0 0 0 0 0 0 0 0 0 0 0 0 127 0" result="hardAlpha"/>
<feOffset dy="15"/>
<feGaussianBlur stdDeviation="15"/>
<feComposite in2="hardAlpha" operator="out"/>
<feColorMatrix type="matrix" values="0 0 0 0 1 0 0 0 0 0.521569 0 0 0 0 0.239216 0 0 0 0.16 0"/>
<feBlend mode="normal" in2="BackgroundImageFix" result="effect1_dropShadow_450_935"/>
<feBlend mode="normal" in="SourceGraphic" in2="effect1_dropShadow_450_935" result="shape"/>
</filter>
<linearGradient id="paint0_linear_450_935" x1="58" y1="-13" x2="2" y2="43" gradientUnits="userSpaceOnUse">
<stop stop-color="#865DFF"/>
<stop offset="1" stop-color="#865DFF"/>
</linearGradient>
</defs>
</svg>
