<svg width="24" height="24" viewBox="0 0 24 24" fill="none" xmlns="http://www.w3.org/2000/svg">
<path d="M9.45 21.67C5.16 20.54 2 16.64 2 12C2 6.48 6.44 2 12 2C18.67 2 22 7.56 22 7.56M22 7.56V3M22 7.56H19.99H17.56" stroke="#060047" stroke-width="1.5" stroke-linecap="round" stroke-linejoin="round"/>
<path d="M22 12C22 17.52 17.52 22 12 22" stroke="#060047" stroke-width="1.5" stroke-linecap="round" stroke-linejoin="round" stroke-dasharray="3 3"/>
<path d="M9.86799 8.72727V16H8.76713V9.82812H8.72452L6.98446 10.9645V9.91335L8.79909 8.72727H9.86799ZM14.3673 16.1207C13.8062 16.1184 13.3268 15.9704 12.9291 15.6768C12.5313 15.3833 12.2271 14.956 12.0164 14.3949C11.8057 13.8338 11.7004 13.1579 11.7004 12.3672C11.7004 11.5788 11.8057 10.9053 12.0164 10.3466C12.2295 9.78788 12.5349 9.36174 12.9326 9.06818C13.3327 8.77462 13.8109 8.62784 14.3673 8.62784C14.9236 8.62784 15.4007 8.7758 15.7984 9.07173C16.1961 9.36529 16.5003 9.79143 16.711 10.3501C16.9241 10.9065 17.0306 11.5788 17.0306 12.3672C17.0306 13.1603 16.9253 13.8374 16.7146 14.3984C16.5039 14.9571 16.1997 15.3845 15.8019 15.6804C15.4042 15.974 14.926 16.1207 14.3673 16.1207ZM14.3673 15.1726C14.8597 15.1726 15.2444 14.9323 15.5214 14.4517C15.8008 13.9711 15.9404 13.2763 15.9404 12.3672C15.9404 11.7635 15.8765 11.2533 15.7487 10.8366C15.6232 10.4176 15.4421 10.1004 15.2053 9.88494C14.971 9.66714 14.6916 9.55824 14.3673 9.55824C13.8772 9.55824 13.4925 9.79972 13.2132 10.2827C12.9338 10.7656 12.7929 11.4605 12.7906 12.3672C12.7906 12.9732 12.8533 13.4858 12.9788 13.9048C13.1066 14.3215 13.2877 14.6375 13.5221 14.853C13.7565 15.0661 14.0382 15.1726 14.3673 15.1726Z" fill="#060047"/>
</svg>
