<svg width="24" height="24" viewBox="0 0 24 24" fill="none" xmlns="http://www.w3.org/2000/svg">
<path fill-rule="evenodd" clip-rule="evenodd" d="M14.6065 2.01194C14.5634 2.00426 14.5191 2.00024 14.4738 2.00024C14.4285 2.00024 14.3842 2.00426 14.3411 2.01194H8.08351C5.59622 2.01194 3.49951 4.02977 3.49951 6.49094V17.2039C3.49951 19.8045 5.50411 21.8649 8.08351 21.8649H16.0725C18.5258 21.8649 20.5515 19.703 20.5515 17.2039V8.03794C20.5515 7.84433 20.4766 7.65821 20.3425 7.51854L15.2775 2.24254C15.1361 2.09522 14.9407 2.01194 14.7365 2.01194H14.6065ZM13.7238 3.51114L8.08351 3.51194C6.41205 3.51194 4.99951 4.87134 4.99951 6.49094V17.2039C4.99951 18.9852 6.3419 20.3649 8.08351 20.3649H16.0725C17.6748 20.3649 19.0515 18.8956 19.0515 17.2039L19.0509 8.98333L18.1754 8.98631C17.8417 8.98591 17.4622 8.9852 17.0402 8.98424C15.2707 8.9805 13.8265 7.59353 13.7291 5.84763L13.7238 5.65924V3.51114ZM18.23 7.48408L17.0435 7.48425C16.038 7.48212 15.2238 6.6657 15.2238 5.65924V4.35269L18.23 7.48408ZM14.2838 14.8078C14.698 14.8078 15.0338 15.1436 15.0338 15.5578C15.0338 15.9375 14.7517 16.2513 14.3856 16.301L14.2838 16.3078H8.88681C8.4726 16.3078 8.13681 15.9721 8.13681 15.5578C8.13681 15.1781 8.41897 14.8644 8.78504 14.8147L8.88681 14.8078H14.2838ZM12.9923 10.6056C12.9923 10.1914 12.6565 9.85564 12.2423 9.85564H8.88631L8.78454 9.86249C8.41847 9.91215 8.13631 10.2259 8.13631 10.6056C8.13631 11.0199 8.4721 11.3556 8.88631 11.3556H12.2423L12.3441 11.3488C12.7102 11.2991 12.9923 10.9853 12.9923 10.6056Z" fill="#2E2E5D"/>
</svg>
