<svg width="80" height="80" viewBox="0 0 80 80" fill="none" xmlns="http://www.w3.org/2000/svg">
<path fill-rule="evenodd" clip-rule="evenodd" d="M6.6665 40.0194C6.6665 21.6209 21.6279 6.66675 39.9998 6.66675C58.3718 6.66675 73.3332 21.6209 73.3332 40.0194C73.3332 58.3791 58.3718 73.3334 39.9998 73.3334C21.6279 73.3334 6.6665 58.3791 6.6665 40.0194ZM52.2265 43.3927C52.5802 43.0391 53.0308 42.4924 53.1272 42.3638C53.6422 41.6884 53.8995 40.8524 53.8995 40.0194C53.8995 39.0834 53.6098 38.2151 53.0628 37.5077C53.0182 37.4627 52.9302 37.3674 52.8158 37.2428C52.6018 37.0101 52.2948 36.6754 52.0012 36.3821C49.3628 33.5521 42.4772 28.9211 38.8738 27.5061C38.3268 27.2842 36.9432 26.7986 36.2032 26.7664C35.4952 26.7664 34.8195 26.9272 34.1762 27.2488C33.3718 27.6991 32.7283 28.4066 32.3744 29.2427C32.1491 29.8216 31.7952 31.5582 31.7952 31.5904C31.4413 33.4877 31.2482 36.5751 31.2482 39.9841C31.2482 43.2354 31.4413 46.1908 31.7309 48.1204C31.7388 48.1284 31.7665 48.2664 31.8095 48.4808C31.9402 49.1324 32.2125 50.4904 32.5031 51.0467C33.2109 52.3974 34.5945 53.2338 36.0745 53.2338H36.2032C37.1685 53.2014 39.1955 52.3654 39.1955 52.3334C42.6062 50.9181 49.3305 46.5124 52.0332 43.5858L52.2265 43.3927Z" fill="#865DFF"/>
</svg>
