<svg width="20" height="20" viewBox="0 0 20 20" fill="none" xmlns="http://www.w3.org/2000/svg">
<path fill-rule="evenodd" clip-rule="evenodd" d="M14.3345 0.000244141H5.66549C2.26791 0.000244141 0.000488281 2.43284 0.000488281 5.91624V14.0842C0.000488281 17.5713 2.26119 20.0002 5.66549 20.0002H14.3335C17.7381 20.0002 20.0005 17.5709 20.0005 14.0842V5.91624C20.0005 2.42975 17.7383 0.000244141 14.3345 0.000244141ZM5.66549 1.50024H14.3345C16.885 1.50024 18.5005 3.23521 18.5005 5.91624V14.0842C18.5005 16.7654 16.8849 18.5002 14.3335 18.5002H5.66549C3.11463 18.5002 1.50049 16.766 1.50049 14.0842V5.91624C1.50049 3.23862 3.12083 1.50024 5.66549 1.50024ZM10.7432 5.53197C10.6936 5.1659 10.3798 4.88374 10.0001 4.88374C9.58588 4.88374 9.25009 5.21953 9.25009 5.63374V9.99474L9.25845 10.1065C9.29158 10.3265 9.42142 10.5228 9.61584 10.6388L13.0068 12.6618L13.0977 12.7081C13.4376 12.853 13.8406 12.7281 14.0352 12.402L14.0814 12.3111C14.2263 11.9713 14.1014 11.5682 13.7753 11.3737L10.7498 9.56804L10.7501 5.63374L10.7432 5.53197Z" fill="#2E2E5D"/>
</svg>
